<?xml version="1.0" encoding="UTF-8"?> <svg xmlns="http://www.w3.org/2000/svg" width="407.286" height="112.063" viewBox="0 0 407.286 112.063"><defs><style>.a{fill:#043565;}</style></defs><g transform="translate(-14.144 -122.815)"><g transform="translate(101.293 149.797)"><path class="a" d="M199.22,188.381h20.338l.193,6.112h-.86q-.633-2.88-1.607-3.75t-4.1-.87h-2V208.28q0,2.079.65,2.577a6,6,0,0,0,2.845.655v.667H204.19v-.667a4.972,4.972,0,0,0,2.845-.752q.561-.577.562-2.9V189.874h-2.02q-2.986,0-4.066.861t-1.624,3.758h-.878Z" transform="translate(-199.009 -187.661)"></path><path class="a" d="M243.85,210.925a3.073,3.073,0,0,0,1.888-.711,4.252,4.252,0,0,0,.448-2.45V190.9a3.144,3.144,0,0,0-.255-1.449q-.255-.465-1.238-.466a2.67,2.67,0,0,0-.377.026l-.413.062v-.632q.773-.228,1.906-.553t1.572-.466l1.686-.527.035.123v10.784a11.516,11.516,0,0,1,1.967-1.862,5.809,5.809,0,0,1,3.337-1.054,3.853,3.853,0,0,1,3.882,2.389,8.269,8.269,0,0,1,.562,3.319v7.166a4.47,4.47,0,0,0,.43,2.424,2.606,2.606,0,0,0,1.765.737v.492h-7.6v-.492a3.282,3.282,0,0,0,1.967-.72,4.279,4.279,0,0,0,.439-2.442v-7.113a5.771,5.771,0,0,0-.571-2.757,2.221,2.221,0,0,0-2.151-1.054,4.307,4.307,0,0,0-2.652.983q-1.283.984-1.282,1.282v8.658a4.131,4.131,0,0,0,.456,2.459,3.411,3.411,0,0,0,1.95.7v.492H243.85Z" transform="translate(-222.054 -186.899)"></path><path class="a" d="M293.518,205.16a6.269,6.269,0,0,1,1.862,4.856H284.228q.175,4.065,1.844,5.923a5.146,5.146,0,0,0,3.952,1.858,4.977,4.977,0,0,0,3.108-.964,9.678,9.678,0,0,0,2.336-2.734l.615.21a10,10,0,0,1-2.7,4.133,6.714,6.714,0,0,1-4.838,1.9,5.919,5.919,0,0,1-5.1-2.494,9.559,9.559,0,0,1-1.8-5.743,9.343,9.343,0,0,1,2.09-6.094,6.692,6.692,0,0,1,5.444-2.564A6.209,6.209,0,0,1,293.518,205.16Zm-8.412,1.344a6.953,6.953,0,0,0-.808,2.389h7.411a7.3,7.3,0,0,0-.667-2.617,3.032,3.032,0,0,0-2.88-1.546A3.357,3.357,0,0,0,285.106,206.5Z" transform="translate(-241.479 -195.404)"></path><path class="a" d="M332.737,211.511a6,6,0,0,0,2.845-.655q.649-.5.65-2.577v-16a3.5,3.5,0,0,0-.65-2.555,5.09,5.09,0,0,0-2.845-.676v-.667H343.38v.667a5.087,5.087,0,0,0-2.845.676,3.5,3.5,0,0,0-.65,2.555v16q0,2.079.65,2.577a6,6,0,0,0,2.845.655v.667H332.737Z" transform="translate(-267.737 -187.661)"></path><path class="a" d="M357.45,219.356a3.169,3.169,0,0,0,1.747-.624,2.966,2.966,0,0,0,.5-2.081V207.73a4.092,4.092,0,0,0-.21-1.568,1.384,1.384,0,0,0-1.37-.663c-.1,0-.213.006-.325.018s-.249.03-.413.053v-.615q.72-.211,3.407-1.089l1.651-.544c.082,0,.132.029.15.088a.921.921,0,0,1,.026.245v2.582a18.021,18.021,0,0,1,2.525-2.073,5.26,5.26,0,0,1,2.84-.86,3.713,3.713,0,0,1,2.174.685q1.893,1.335,1.893,4.76v8.2a2.7,2.7,0,0,0,.5,1.827,2.228,2.228,0,0,0,1.69.579v.492h-7.5v-.492a3.01,3.01,0,0,0,1.791-.711,3.61,3.61,0,0,0,.509-2.327v-7.5a5.054,5.054,0,0,0-.559-2.5,2.157,2.157,0,0,0-2.061-.992,3.8,3.8,0,0,0-2.1.7,12.013,12.013,0,0,0-1.537,1.335V217.2a2.049,2.049,0,0,0,.562,1.695,3.08,3.08,0,0,0,1.774.465v.492H357.45Z" transform="translate(-280.401 -195.33)"></path><path class="a" d="M397,214.26h.579a9.193,9.193,0,0,0,1.086,3.073,3.974,3.974,0,0,0,3.592,1.967,2.88,2.88,0,0,0,2.076-.729,2.5,2.5,0,0,0,.762-1.888,2.6,2.6,0,0,0-.439-1.422,4.508,4.508,0,0,0-1.545-1.335l-1.967-1.124a11.215,11.215,0,0,1-3.179-2.336,4.1,4.1,0,0,1-1.019-2.775,4.152,4.152,0,0,1,1.405-3.231,5.08,5.08,0,0,1,3.53-1.265,6.876,6.876,0,0,1,2.046.351,9.442,9.442,0,0,0,1.256.351.893.893,0,0,0,.456-.088.738.738,0,0,0,.246-.281h.421l.123,4.9h-.544a8.149,8.149,0,0,0-.948-2.652,3.486,3.486,0,0,0-3.144-1.756,2.494,2.494,0,0,0-2.634,2.529q0,1.616,2.424,2.88l2.318,1.247q3.741,2.037,3.741,4.742a4.242,4.242,0,0,1-1.552,3.389,6.057,6.057,0,0,1-4.059,1.317,9.481,9.481,0,0,1-2.384-.351,10.744,10.744,0,0,0-1.578-.351.52.52,0,0,0-.368.149,1.034,1.034,0,0,0-.245.36H397Z" transform="translate(-300.735 -195.274)"></path><path class="a" d="M427.887,203.882v11.24a4.6,4.6,0,0,0,.334,1.914,2.413,2.413,0,0,0,2.389,1.335,4.063,4.063,0,0,0,2.336-.79,6.874,6.874,0,0,0,1.317-1.212v-9.625a2.239,2.239,0,0,0-.527-1.774,4,4,0,0,0-2.108-.509v-.579H437.3v12.364a2.384,2.384,0,0,0,.43,1.642,2.471,2.471,0,0,0,1.818.4v.491q-.967.264-1.423.4t-1.528.483q-.457.158-2,.755a.1.1,0,0,1-.105-.079.859.859,0,0,1-.018-.184v-2.828a11.872,11.872,0,0,1-2.178,2.108,5.389,5.389,0,0,1-3.161,1.054,4.512,4.512,0,0,1-2.88-1.09,4.309,4.309,0,0,1-1.37-3.6v-9.127a2.3,2.3,0,0,0-.6-1.865,3.612,3.612,0,0,0-1.651-.418v-.492Z" transform="translate(-313.939 -195.627)"></path><path class="a" d="M459.311,219.25a4.251,4.251,0,0,0,2.143-.571,2.357,2.357,0,0,0,.527-1.835v-7.921a6.775,6.775,0,0,0-.325-2.485,1.185,1.185,0,0,0-1.186-.747,3.287,3.287,0,0,0-.466.044q-.289.044-.606.114v-.579l2.048-.72q1.051-.369,1.453-.527.876-.333,1.8-.755c.082,0,.132.029.149.087a1.57,1.57,0,0,1,.027.369v2.88a13.447,13.447,0,0,1,2.175-2.441,3.358,3.358,0,0,1,2.175-.878,2.036,2.036,0,0,1,1.462.536,1.9,1.9,0,0,1,.133,2.555,1.374,1.374,0,0,1-1.08.492,2.021,2.021,0,0,1-1.343-.615,1.9,1.9,0,0,0-1.063-.614q-.615,0-1.51.992a3.043,3.043,0,0,0-.9,2.046V216.6a2.622,2.622,0,0,0,.7,2.1,3.526,3.526,0,0,0,2.336.553v.58h-8.658Z" transform="translate(-332.787 -195.312)"></path><path class="a" d="M488.884,211.991a38.428,38.428,0,0,1,6.446-2.862v-1.493a6.148,6.148,0,0,0-.351-2.494,2.5,2.5,0,0,0-2.476-1.176,3.411,3.411,0,0,0-1.7.456,1.45,1.45,0,0,0-.808,1.3,4.707,4.707,0,0,0,.087.711,5.118,5.118,0,0,1,.088.641,1.46,1.46,0,0,1-.65,1.37,1.631,1.631,0,0,1-.878.228,1.471,1.471,0,0,1-1.212-.518,1.778,1.778,0,0,1-.421-1.15,3.658,3.658,0,0,1,1.519-2.573,6.526,6.526,0,0,1,4.452-1.343q3.407,0,4.619,2.213a7.644,7.644,0,0,1,.65,3.53v7.043a4.7,4.7,0,0,0,.14,1.4.916.916,0,0,0,.948.685,1.577,1.577,0,0,0,.667-.123,6.766,6.766,0,0,0,.913-.6v.913a5.722,5.722,0,0,1-1.212,1.124,3.531,3.531,0,0,1-2,.667,1.954,1.954,0,0,1-1.73-.772,3.468,3.468,0,0,1-.589-1.844,16.583,16.583,0,0,1-2.283,1.721,5.987,5.987,0,0,1-3.038.948,3.653,3.653,0,0,1-2.617-1.063,3.578,3.578,0,0,1-1.106-2.7A5,5,0,0,1,488.884,211.991Zm6.446-1.985a16.08,16.08,0,0,0-3.337,1.475q-2.529,1.563-2.529,3.548a2.7,2.7,0,0,0,1.053,2.354,2.559,2.559,0,0,0,1.528.492,4.2,4.2,0,0,0,2.221-.65,1.906,1.906,0,0,0,1.063-1.651Z" transform="translate(-346.678 -195.219)"></path><path class="a" d="M517.735,219.356a3.167,3.167,0,0,0,1.747-.624,2.965,2.965,0,0,0,.5-2.081V207.73a4.088,4.088,0,0,0-.211-1.568,1.383,1.383,0,0,0-1.37-.663c-.105,0-.214.006-.325.018s-.249.03-.413.053v-.615q.72-.211,3.407-1.089l1.651-.544c.082,0,.132.029.15.088a.915.915,0,0,1,.026.245v2.582a18.024,18.024,0,0,1,2.524-2.073,5.26,5.26,0,0,1,2.84-.86,3.712,3.712,0,0,1,2.174.685q1.893,1.335,1.893,4.76v8.2a2.7,2.7,0,0,0,.505,1.827,2.229,2.229,0,0,0,1.691.579v.492h-7.5v-.492a3.009,3.009,0,0,0,1.791-.711,3.606,3.606,0,0,0,.509-2.327v-7.5a5.054,5.054,0,0,0-.559-2.5,2.157,2.157,0,0,0-2.06-.992,3.8,3.8,0,0,0-2.1.7,12.046,12.046,0,0,0-1.537,1.335V217.2a2.049,2.049,0,0,0,.562,1.695,3.081,3.081,0,0,0,1.774.465v.492h-7.675Z" transform="translate(-362.778 -195.33)"></path><path class="a" d="M567.069,204.4a3.122,3.122,0,0,1,1.59,2.477,1.677,1.677,0,0,1-.4,1.076,1.511,1.511,0,0,1-1.247.5,1.558,1.558,0,0,1-1.08-.421,2.441,2.441,0,0,1-.677-1.23l-.21-.843a2.141,2.141,0,0,0-.79-1.317,2.811,2.811,0,0,0-1.528-.369,4.164,4.164,0,0,0-3.381,1.75,7.307,7.307,0,0,0-1.378,4.652,7.958,7.958,0,0,0,1.519,4.766,4.8,4.8,0,0,0,4.1,2.11,4.907,4.907,0,0,0,3.249-1.2,11.165,11.165,0,0,0,1.827-2.182l.492.3a13.954,13.954,0,0,1-2.108,3.341,6.455,6.455,0,0,1-4.918,2.355,6.586,6.586,0,0,1-4.847-2.16,8.039,8.039,0,0,1-2.108-5.866,9.151,9.151,0,0,1,2.3-6.253,7.409,7.409,0,0,1,5.813-2.616A6.365,6.365,0,0,1,567.069,204.4Z" transform="translate(-382.053 -195.312)"></path><path class="a" d="M599.635,205.16a6.269,6.269,0,0,1,1.862,4.856H590.344q.175,4.065,1.844,5.923a5.147,5.147,0,0,0,3.952,1.858,4.979,4.979,0,0,0,3.109-.964,9.684,9.684,0,0,0,2.336-2.734l.615.21a10,10,0,0,1-2.7,4.133,6.714,6.714,0,0,1-4.838,1.9,5.921,5.921,0,0,1-5.1-2.494,9.559,9.559,0,0,1-1.8-5.743,9.344,9.344,0,0,1,2.09-6.094,6.693,6.693,0,0,1,5.445-2.564A6.208,6.208,0,0,1,599.635,205.16Zm-8.412,1.344a6.964,6.964,0,0,0-.808,2.389h7.411a7.305,7.305,0,0,0-.667-2.617,3.032,3.032,0,0,0-2.88-1.546A3.357,3.357,0,0,0,591.223,206.5Z" transform="translate(-398.803 -195.404)"></path><path class="a" d="M638.493,211.511a5.277,5.277,0,0,0,2.573-.708q.588-.5.588-2.524v-16a3.746,3.746,0,0,0-.579-2.5,4.283,4.283,0,0,0-2.582-.729v-.667h10.151v.667a4.954,4.954,0,0,0-2.661.65,2.975,2.975,0,0,0-.676,2.336v17.282a1.844,1.844,0,0,0,.2.94,1.134,1.134,0,0,0,.888.431q.4.053.853.07t1.679.017q4.8,0,6.488-.79t3.271-4.039h.914l-1.759,6.235H638.493Z" transform="translate(-424.875 -187.661)"></path><path class="a" d="M684.31,210.925a4.475,4.475,0,0,0,2.37-.641q.491-.465.492-2.52v-8.377a5.325,5.325,0,0,0-.158-1.581,1.062,1.062,0,0,0-1.106-.72,2.014,2.014,0,0,0-.378.035q-.185.035-1.062.281v-.544l.755-.246q3.073-1,4.286-1.511a2.275,2.275,0,0,1,.632-.21.959.959,0,0,1,.035.263v12.61a4.119,4.119,0,0,0,.483,2.512,3.6,3.6,0,0,0,2.186.65v.492H684.31Zm2.792-23.484a1.739,1.739,0,0,1,1.3-.542,1.834,1.834,0,1,1-1.827,1.835A1.789,1.789,0,0,1,687.1,187.441Z" transform="translate(-448.422 -186.899)"></path><path class="a" d="M703.677,189.077v-.6a33.23,33.23,0,0,0,3.612-1.018,17.593,17.593,0,0,1,1.727-.562.667.667,0,0,1,.035.211V197.8a5.516,5.516,0,0,1,1.368-1.6,5.712,5.712,0,0,1,3.717-1.317,5.556,5.556,0,0,1,4.4,2.178,8.514,8.514,0,0,1,1.824,5.655,9.234,9.234,0,0,1-2.371,6.375,7.961,7.961,0,0,1-6.235,2.652,9.991,9.991,0,0,1-3.829-.772q-1.88-.773-1.879-1.546V190.868a2.779,2.779,0,0,0-.281-1.449q-.281-.429-1.3-.43Zm6.686,21.067a6.924,6.924,0,0,0,2.116.395,4.009,4.009,0,0,0,3.629-1.842,8.081,8.081,0,0,0,1.181-4.455,10.719,10.719,0,0,0-1.1-4.832,3.715,3.715,0,0,0-3.568-2.219,4.451,4.451,0,0,0-2.431.764A2.249,2.249,0,0,0,709,199.892v8.946A1.744,1.744,0,0,0,710.363,210.144Z" transform="translate(-458.376 -186.899)"></path><path class="a" d="M740.749,219.25a4.248,4.248,0,0,0,2.143-.571,2.355,2.355,0,0,0,.527-1.835v-7.921a6.766,6.766,0,0,0-.325-2.485,1.184,1.184,0,0,0-1.185-.747,3.282,3.282,0,0,0-.466.044c-.193.03-.4.068-.606.114v-.579l2.048-.72q1.05-.369,1.453-.527.875-.333,1.8-.755.123,0,.148.087a1.546,1.546,0,0,1,.027.369v2.88a13.429,13.429,0,0,1,2.175-2.441,3.356,3.356,0,0,1,2.175-.878,2.034,2.034,0,0,1,1.462.536,1.9,1.9,0,0,1,.133,2.555,1.374,1.374,0,0,1-1.08.492,2.022,2.022,0,0,1-1.344-.615,1.9,1.9,0,0,0-1.062-.614q-.615,0-1.511.992a3.045,3.045,0,0,0-.9,2.046V216.6a2.623,2.623,0,0,0,.7,2.1,3.524,3.524,0,0,0,2.336.553v.58h-8.658Z" transform="translate(-477.428 -195.312)"></path><path class="a" d="M770.323,211.991a38.4,38.4,0,0,1,6.445-2.862v-1.493a6.158,6.158,0,0,0-.351-2.494,2.505,2.505,0,0,0-2.476-1.176,3.412,3.412,0,0,0-1.7.456,1.45,1.45,0,0,0-.808,1.3,4.727,4.727,0,0,0,.088.711,5.081,5.081,0,0,1,.087.641,1.46,1.46,0,0,1-.65,1.37,1.63,1.63,0,0,1-.878.228,1.471,1.471,0,0,1-1.212-.518,1.776,1.776,0,0,1-.422-1.15,3.657,3.657,0,0,1,1.519-2.573,6.526,6.526,0,0,1,4.452-1.343q3.406,0,4.619,2.213a7.645,7.645,0,0,1,.65,3.53v7.043a4.7,4.7,0,0,0,.141,1.4.916.916,0,0,0,.949.685,1.58,1.58,0,0,0,.667-.123,6.829,6.829,0,0,0,.913-.6v.913a5.741,5.741,0,0,1-1.212,1.124,3.529,3.529,0,0,1-2,.667,1.953,1.953,0,0,1-1.729-.772,3.461,3.461,0,0,1-.589-1.844,16.587,16.587,0,0,1-2.283,1.721A5.987,5.987,0,0,1,771.5,220a3.651,3.651,0,0,1-2.617-1.063,3.577,3.577,0,0,1-1.107-2.7A5,5,0,0,1,770.323,211.991Zm6.445-1.985a16.1,16.1,0,0,0-3.337,1.475q-2.529,1.563-2.529,3.548a2.7,2.7,0,0,0,1.054,2.354,2.556,2.556,0,0,0,1.528.492,4.2,4.2,0,0,0,2.221-.65,1.906,1.906,0,0,0,1.063-1.651Z" transform="translate(-491.319 -195.219)"></path><path class="a" d="M798.236,219.25a4.252,4.252,0,0,0,2.143-.571,2.357,2.357,0,0,0,.527-1.835v-7.921a6.774,6.774,0,0,0-.325-2.485,1.185,1.185,0,0,0-1.186-.747,3.287,3.287,0,0,0-.466.044q-.289.044-.606.114v-.579l2.048-.72q1.05-.369,1.453-.527.875-.333,1.8-.755c.082,0,.132.029.149.087a1.579,1.579,0,0,1,.026.369v2.88a13.448,13.448,0,0,1,2.175-2.441,3.358,3.358,0,0,1,2.175-.878,2.034,2.034,0,0,1,1.462.536,1.9,1.9,0,0,1,.133,2.555,1.375,1.375,0,0,1-1.08.492,2.02,2.02,0,0,1-1.343-.615,1.9,1.9,0,0,0-1.062-.614q-.615,0-1.51.992a3.043,3.043,0,0,0-.9,2.046V216.6a2.622,2.622,0,0,0,.7,2.1,3.526,3.526,0,0,0,2.336.553v.58h-8.659Z" transform="translate(-506.973 -195.312)"></path><path class="a" d="M823.565,204.135h7.411v.491a4.626,4.626,0,0,0-1.3.162q-.809.234-.808.916a1.586,1.586,0,0,0,.088.512q.087.26.316.781l4.065,8.79,3.346-8.86q.053-.144.166-.647a3.768,3.768,0,0,0,.115-.683.768.768,0,0,0-.316-.683,1.623,1.623,0,0,0-.808-.252l-.544-.036v-.491h4.83v.491a1.634,1.634,0,0,0-1.08.508,3.627,3.627,0,0,0-.624,1.161l-5.532,14.648a22.413,22.413,0,0,1-2.758,5.5,4.05,4.05,0,0,1-3.337,1.7,3.657,3.657,0,0,1-1.844-.491,1.669,1.669,0,0,1-.861-1.563,1.459,1.459,0,0,1,.512-1.151,1.892,1.892,0,0,1,1.292-.448,4.292,4.292,0,0,1,1.344.333,4.3,4.3,0,0,0,1.275.334q.971,0,2.047-2.385a10.375,10.375,0,0,0,1.076-3.149,1.772,1.772,0,0,0-.051-.382,2.809,2.809,0,0,0-.117-.4l-5.535-11.968a5.814,5.814,0,0,0-1.044-1.712,2.413,2.413,0,0,0-1.326-.536Z" transform="translate(-519.99 -195.757)"></path></g><g transform="translate(108.007 189.63)"><path class="a" d="M212.822,283.19a2.368,2.368,0,0,0,1.5-.467,2.945,2.945,0,0,0,.3-1.656v-9.052a2.181,2.181,0,0,0-.331-1.444,2.439,2.439,0,0,0-1.465-.434v-.387h5.787a8.527,8.527,0,0,1,3.01.458,3.182,3.182,0,0,1,2.286,3.19,2.926,2.926,0,0,1-1.016,2.4,5.585,5.585,0,0,1-2.76,1.1l4.307,5.3a2.9,2.9,0,0,0,.8.709,2.6,2.6,0,0,0,1.021.283v.388h-3.366l-5.228-6.439-.917.051v4.119a2.064,2.064,0,0,0,.352,1.47,2.927,2.927,0,0,0,1.536.412v.388h-5.807Zm7.144-7.246a2.538,2.538,0,0,0,1.663-2.567,2.463,2.463,0,0,0-1.49-2.475,5.236,5.236,0,0,0-2.112-.357,2.662,2.662,0,0,0-1.087.127q-.2.128-.2.6v5.145A10.554,10.554,0,0,0,219.966,275.944Z" transform="translate(-212.822 -269.311)"></path><path class="a" d="M248.758,279.5a3.643,3.643,0,0,1,1.081,2.822h-6.48a5.426,5.426,0,0,0,1.071,3.442,2.99,2.99,0,0,0,2.3,1.079,2.9,2.9,0,0,0,1.806-.559,5.631,5.631,0,0,0,1.357-1.589l.357.122a5.814,5.814,0,0,1-1.566,2.4,3.9,3.9,0,0,1-2.812,1.1,3.44,3.44,0,0,1-2.965-1.449,5.556,5.556,0,0,1-1.047-3.338,5.43,5.43,0,0,1,1.215-3.541,3.887,3.887,0,0,1,3.164-1.49A3.609,3.609,0,0,1,248.758,279.5Zm-4.888.781a4.044,4.044,0,0,0-.47,1.388h4.307a4.247,4.247,0,0,0-.388-1.521,1.762,1.762,0,0,0-1.674-.9A1.949,1.949,0,0,0,243.87,280.281Z" transform="translate(-227.745 -273.811)"></path><path class="a" d="M262.32,284.787h.337a5.332,5.332,0,0,0,.631,1.786,2.309,2.309,0,0,0,2.087,1.143,1.673,1.673,0,0,0,1.206-.423,1.45,1.45,0,0,0,.443-1.1,1.511,1.511,0,0,0-.255-.826,2.608,2.608,0,0,0-.9-.775l-1.142-.653a6.52,6.52,0,0,1-1.848-1.357,2.385,2.385,0,0,1-.592-1.613,2.414,2.414,0,0,1,.817-1.878,2.951,2.951,0,0,1,2.051-.735,4,4,0,0,1,1.189.2,5.378,5.378,0,0,0,.73.2.519.519,0,0,0,.265-.051.432.432,0,0,0,.143-.163h.245l.071,2.847h-.316a4.733,4.733,0,0,0-.552-1.541,2.025,2.025,0,0,0-1.827-1.02,1.449,1.449,0,0,0-1.531,1.469q0,.939,1.408,1.674l1.347.725q2.173,1.183,2.174,2.755a2.466,2.466,0,0,1-.9,1.97,3.521,3.521,0,0,1-2.359.766,5.5,5.5,0,0,1-1.385-.2,6.255,6.255,0,0,0-.917-.2.3.3,0,0,0-.214.087.6.6,0,0,0-.142.209h-.265Z" transform="translate(-238.245 -273.734)"></path><path class="a" d="M284.578,279.5a3.643,3.643,0,0,1,1.082,2.822h-6.481a5.429,5.429,0,0,0,1.072,3.442,2.989,2.989,0,0,0,2.3,1.079,2.9,2.9,0,0,0,1.806-.559,5.623,5.623,0,0,0,1.357-1.589l.357.122a5.814,5.814,0,0,1-1.566,2.4,3.9,3.9,0,0,1-2.811,1.1,3.441,3.441,0,0,1-2.965-1.449,5.556,5.556,0,0,1-1.046-3.338,5.433,5.433,0,0,1,1.214-3.541,3.889,3.889,0,0,1,3.164-1.49A3.608,3.608,0,0,1,284.578,279.5Zm-4.888.781a4.055,4.055,0,0,0-.47,1.388h4.307a4.226,4.226,0,0,0-.388-1.521,1.761,1.761,0,0,0-1.674-.9A1.95,1.95,0,0,0,279.689,280.281Z" transform="translate(-246.154 -273.811)"></path><path class="a" d="M298.978,283.469a22.351,22.351,0,0,1,3.745-1.663v-.868a3.57,3.57,0,0,0-.2-1.448,1.453,1.453,0,0,0-1.439-.684,1.976,1.976,0,0,0-.99.265.842.842,0,0,0-.47.755,2.728,2.728,0,0,0,.052.414,2.921,2.921,0,0,1,.051.372.85.85,0,0,1-.378.8.95.95,0,0,1-.51.133.854.854,0,0,1-.7-.3,1.037,1.037,0,0,1-.245-.669,2.124,2.124,0,0,1,.882-1.5,3.8,3.8,0,0,1,2.588-.781,2.781,2.781,0,0,1,2.684,1.286,4.441,4.441,0,0,1,.378,2.051v4.093a2.739,2.739,0,0,0,.082.817.532.532,0,0,0,.551.4.931.931,0,0,0,.388-.071,4.027,4.027,0,0,0,.531-.347v.531a3.331,3.331,0,0,1-.7.653,2.05,2.05,0,0,1-1.164.388,1.134,1.134,0,0,1-1.005-.449,2.013,2.013,0,0,1-.342-1.072,9.622,9.622,0,0,1-1.327,1,3.474,3.474,0,0,1-1.766.551,2.122,2.122,0,0,1-1.52-.617,2.079,2.079,0,0,1-.643-1.567A2.909,2.909,0,0,1,298.978,283.469Zm3.745-1.153a9.388,9.388,0,0,0-1.938.857,2.526,2.526,0,0,0-1.47,2.061,1.569,1.569,0,0,0,.612,1.368,1.488,1.488,0,0,0,.888.286,2.441,2.441,0,0,0,1.292-.378,1.108,1.108,0,0,0,.617-.96Z" transform="translate(-256.34 -273.703)"></path><path class="a" d="M315.2,287.687a2.465,2.465,0,0,0,1.245-.331,1.368,1.368,0,0,0,.307-1.066v-4.6a3.943,3.943,0,0,0-.189-1.444.689.689,0,0,0-.689-.434,1.9,1.9,0,0,0-.27.026c-.112.017-.229.039-.352.066v-.337l1.19-.418q.611-.214.844-.306.509-.194,1.048-.439.071,0,.086.051a.93.93,0,0,1,.015.214v1.674a7.833,7.833,0,0,1,1.264-1.418,1.951,1.951,0,0,1,1.264-.51,1.181,1.181,0,0,1,.849.312,1.1,1.1,0,0,1,.078,1.484.8.8,0,0,1-.628.286,1.175,1.175,0,0,1-.781-.357,1.1,1.1,0,0,0-.617-.357q-.357,0-.878.577a1.768,1.768,0,0,0-.52,1.189v4.6a1.523,1.523,0,0,0,.408,1.22,2.048,2.048,0,0,0,1.357.321v.337H315.2Z" transform="translate(-265.437 -273.757)"></path><path class="a" d="M337.23,279.056a1.813,1.813,0,0,1,.923,1.439.973.973,0,0,1-.234.626.876.876,0,0,1-.724.29.907.907,0,0,1-.628-.245,1.419,1.419,0,0,1-.393-.715l-.123-.49a1.243,1.243,0,0,0-.459-.766,1.637,1.637,0,0,0-.888-.214A2.419,2.419,0,0,0,332.74,280a4.243,4.243,0,0,0-.8,2.7,4.623,4.623,0,0,0,.883,2.77A2.786,2.786,0,0,0,335.2,286.7a2.849,2.849,0,0,0,1.888-.7,6.467,6.467,0,0,0,1.061-1.268l.286.174a8.054,8.054,0,0,1-1.224,1.941,3.75,3.75,0,0,1-2.858,1.369,3.829,3.829,0,0,1-2.817-1.255,4.672,4.672,0,0,1-1.225-3.409,5.317,5.317,0,0,1,1.337-3.633,4.3,4.3,0,0,1,3.379-1.52A3.7,3.7,0,0,1,337.23,279.056Z" transform="translate(-273.206 -273.757)"></path><path class="a" d="M348.792,282.85a1.787,1.787,0,0,0,1.1-.413,2.471,2.471,0,0,0,.26-1.424v-9.8a1.835,1.835,0,0,0-.148-.842q-.148-.27-.719-.27a1.471,1.471,0,0,0-.219.016l-.24.035v-.367q.449-.132,1.107-.321t.913-.27l.979-.306.021.071v6.267a6.672,6.672,0,0,1,1.143-1.082,3.372,3.372,0,0,1,1.938-.612,2.24,2.24,0,0,1,2.256,1.388,4.8,4.8,0,0,1,.327,1.929v4.164a2.6,2.6,0,0,0,.25,1.408,1.509,1.509,0,0,0,1.026.429v.286h-4.419v-.286a1.9,1.9,0,0,0,1.143-.418,2.481,2.481,0,0,0,.256-1.418v-4.133a3.363,3.363,0,0,0-.332-1.6,1.291,1.291,0,0,0-1.25-.612,2.5,2.5,0,0,0-1.541.572q-.744.572-.745.745v5.032a2.4,2.4,0,0,0,.265,1.428,1.982,1.982,0,0,0,1.133.408v.286h-4.5Z" transform="translate(-282.702 -268.869)"></path><path class="a" d="M413.4,283.19a3.07,3.07,0,0,0,1.5-.411q.341-.289.342-1.467v-9.3a2.174,2.174,0,0,0-.337-1.454,2.486,2.486,0,0,0-1.5-.424v-.387h11.1l.072,2.99h-.531a2.964,2.964,0,0,0-.8-1.788,4.433,4.433,0,0,0-2.368-.406h-2.845q-.461,0-.568.148a1.011,1.011,0,0,0-.108.557v4.664h3.225a2.461,2.461,0,0,0,1.7-.4,3.422,3.422,0,0,0,.592-1.6h.49v4.827h-.49a3.469,3.469,0,0,0-.6-1.607,2.458,2.458,0,0,0-1.694-.393h-3.225v5.174q0,.623.394.735a13.339,13.339,0,0,0,2.356.112,7.947,7.947,0,0,0,3.138-.465,4.251,4.251,0,0,0,1.818-2.25h.581l-.949,3.531H413.4Z" transform="translate(-315.904 -269.311)"></path><path class="a" d="M446.027,273.8a3.271,3.271,0,0,1,.786.593v-3.246a1.859,1.859,0,0,0-.138-.857q-.139-.235-.659-.235a1.827,1.827,0,0,0-.214.011l-.408.041v-.337l.837-.214c.307-.082.612-.167.919-.255s.575-.174.806-.255q.163-.051.541-.194l.061.02-.02,1.072q-.011.581-.021,1.2t-.01,1.219l-.02,8.338a1.9,1.9,0,0,0,.163.929q.163.265.868.265c.075,0,.15,0,.224-.005a1.682,1.682,0,0,0,.225-.025v.337l-1.48.51-1.6.6-.071-.092v-1.256a5.313,5.313,0,0,1-.99.888,3.219,3.219,0,0,1-1.725.459,3.432,3.432,0,0,1-2.811-1.342,4.819,4.819,0,0,1-1.077-3.108,5.835,5.835,0,0,1,1.291-3.8,3.933,3.933,0,0,1,3.159-1.587A2.9,2.9,0,0,1,446.027,273.8Zm.3,7.94a1.3,1.3,0,0,0,.49-.888V276.47a2.223,2.223,0,0,0-.709-1.873,2.287,2.287,0,0,0-1.383-.546,2.241,2.241,0,0,0-2,1.138,5.174,5.174,0,0,0-.714,2.8,5.646,5.646,0,0,0,.76,2.93,2.473,2.473,0,0,0,2.271,1.285A1.78,1.78,0,0,0,446.323,281.736Z" transform="translate(-329.685 -268.847)"></path><path class="a" d="M464.111,278.757v6.531a2.681,2.681,0,0,0,.193,1.112,1.4,1.4,0,0,0,1.388.776,2.359,2.359,0,0,0,1.358-.459,4.008,4.008,0,0,0,.765-.7v-5.593a1.3,1.3,0,0,0-.306-1.031,2.324,2.324,0,0,0-1.224-.3v-.336h3.3v7.185a1.386,1.386,0,0,0,.249.954,1.436,1.436,0,0,0,1.057.23v.286q-.561.152-.827.229t-.888.28q-.265.092-1.164.439a.055.055,0,0,1-.061-.046.5.5,0,0,1-.01-.107v-1.643a6.856,6.856,0,0,1-1.266,1.225,3.13,3.13,0,0,1-1.837.612,2.622,2.622,0,0,1-1.674-.633,2.506,2.506,0,0,1-.8-2.095v-5.3a1.334,1.334,0,0,0-.347-1.083,2.09,2.09,0,0,0-.959-.243v-.286Z" transform="translate(-340.4 -273.94)"></path><path class="a" d="M490.082,279.056a1.814,1.814,0,0,1,.923,1.439.973.973,0,0,1-.234.626.878.878,0,0,1-.725.29.907.907,0,0,1-.628-.245,1.419,1.419,0,0,1-.392-.715l-.122-.49a1.243,1.243,0,0,0-.46-.766,1.636,1.636,0,0,0-.888-.214A2.42,2.42,0,0,0,485.591,280a4.246,4.246,0,0,0-.8,2.7,4.622,4.622,0,0,0,.883,2.77,2.787,2.787,0,0,0,2.383,1.226,2.846,2.846,0,0,0,1.887-.7A6.465,6.465,0,0,0,491,284.734l.286.174a8.054,8.054,0,0,1-1.225,1.941,3.749,3.749,0,0,1-2.858,1.369,3.828,3.828,0,0,1-2.816-1.255,4.672,4.672,0,0,1-1.225-3.409,5.317,5.317,0,0,1,1.337-3.633,4.3,4.3,0,0,1,3.378-1.52A3.7,3.7,0,0,1,490.082,279.056Z" transform="translate(-351.762 -273.757)"></path><path class="a" d="M504.32,283.469a22.35,22.35,0,0,1,3.745-1.663v-.868a3.57,3.57,0,0,0-.2-1.448,1.454,1.454,0,0,0-1.439-.684,1.974,1.974,0,0,0-.99.265.842.842,0,0,0-.47.755,2.775,2.775,0,0,0,.051.414,2.864,2.864,0,0,1,.052.372.85.85,0,0,1-.378.8.95.95,0,0,1-.51.133.854.854,0,0,1-.7-.3,1.037,1.037,0,0,1-.245-.669,2.124,2.124,0,0,1,.882-1.5,3.793,3.793,0,0,1,2.587-.781,2.781,2.781,0,0,1,2.684,1.286,4.447,4.447,0,0,1,.378,2.051v4.093a2.74,2.74,0,0,0,.082.817.532.532,0,0,0,.551.4.931.931,0,0,0,.388-.071,4.023,4.023,0,0,0,.531-.347v.531a3.333,3.333,0,0,1-.7.653,2.049,2.049,0,0,1-1.163.388,1.136,1.136,0,0,1-1.006-.449,2.017,2.017,0,0,1-.342-1.072,9.6,9.6,0,0,1-1.326,1,3.477,3.477,0,0,1-1.766.551,2.122,2.122,0,0,1-1.52-.617,2.079,2.079,0,0,1-.643-1.567A2.908,2.908,0,0,1,504.32,283.469Zm3.745-1.153a9.364,9.364,0,0,0-1.938.857,2.526,2.526,0,0,0-1.47,2.061,1.568,1.568,0,0,0,.612,1.368,1.488,1.488,0,0,0,.888.286,2.438,2.438,0,0,0,1.291-.378,1.108,1.108,0,0,0,.617-.96Z" transform="translate(-361.873 -273.703)"></path><path class="a" d="M525.939,276v.735h-2.082l-.021,5.878a3.951,3.951,0,0,0,.133,1.174.944.944,0,0,0,.959.7,1.159,1.159,0,0,0,.638-.174,3.349,3.349,0,0,0,.618-.552l.265.225-.224.306a3.262,3.262,0,0,1-1.123,1.011,2.543,2.543,0,0,1-1.143.3,1.609,1.609,0,0,1-1.633-1.071,4.45,4.45,0,0,1-.234-1.613v-6.184h-1.113a.307.307,0,0,1-.076-.061.123.123,0,0,1-.025-.082.245.245,0,0,1,.046-.158,3.1,3.1,0,0,1,.291-.261,8.741,8.741,0,0,0,1.015-.943q.311-.362,1.465-1.914a.336.336,0,0,1,.158.021c.017.014.025.065.025.153V276Z" transform="translate(-371.142 -271.145)"></path><path class="a" d="M533.139,282.85a2.6,2.6,0,0,0,1.378-.372q.286-.27.286-1.465v-4.868a3.09,3.09,0,0,0-.092-.918.617.617,0,0,0-.643-.419,1.174,1.174,0,0,0-.219.02c-.071.014-.278.068-.617.163v-.316l.438-.142q1.786-.583,2.491-.878a1.323,1.323,0,0,1,.367-.122.54.54,0,0,1,.02.154v7.327a2.392,2.392,0,0,0,.281,1.459,2.093,2.093,0,0,0,1.271.378v.286h-4.96Zm1.623-13.646a1.01,1.01,0,0,1,.755-.314,1.06,1.06,0,0,1,1.062,1.066,1.061,1.061,0,1,1-2.123,0A1.041,1.041,0,0,1,534.762,269.2Z" transform="translate(-377.444 -268.869)"></path><path class="a" d="M546.628,279.908a4.311,4.311,0,0,1,3.322-1.4,4.538,4.538,0,0,1,3.348,1.326,4.775,4.775,0,0,1,1.326,3.531,5.254,5.254,0,0,1-1.286,3.531,4.179,4.179,0,0,1-3.327,1.5,4.385,4.385,0,0,1-3.316-1.439,5.059,5.059,0,0,1-1.358-3.613A4.885,4.885,0,0,1,546.628,279.908Zm1.63-.261a4.183,4.183,0,0,0-1.023,3.2,7.2,7.2,0,0,0,.823,3.388,2.52,2.52,0,0,0,2.285,1.571,1.943,1.943,0,0,0,1.764-1.051,5.394,5.394,0,0,0,.618-2.755,7.289,7.289,0,0,0-.787-3.327,2.469,2.469,0,0,0-2.28-1.561A2.032,2.032,0,0,0,548.258,279.648Z" transform="translate(-383.713 -273.811)"></path><path class="a" d="M566.479,287.749a1.844,1.844,0,0,0,1.015-.362,1.726,1.726,0,0,0,.291-1.209v-5.184a2.374,2.374,0,0,0-.123-.911.8.8,0,0,0-.8-.385c-.061,0-.124,0-.188.01s-.145.017-.24.031v-.357q.418-.122,1.98-.633l.959-.317c.048,0,.077.018.086.052a.5.5,0,0,1,.015.143v1.5a10.464,10.464,0,0,1,1.467-1.2,3.058,3.058,0,0,1,1.65-.5,2.154,2.154,0,0,1,1.263.4,3.156,3.156,0,0,1,1.1,2.766v4.765a1.569,1.569,0,0,0,.293,1.062,1.3,1.3,0,0,0,.983.337v.286h-4.358v-.286a1.748,1.748,0,0,0,1.041-.413,2.1,2.1,0,0,0,.3-1.352v-4.358a2.939,2.939,0,0,0-.325-1.455,1.253,1.253,0,0,0-1.2-.576,2.2,2.2,0,0,0-1.218.408,6.924,6.924,0,0,0-.893.775v5.715a1.19,1.19,0,0,0,.327.985,1.788,1.788,0,0,0,1.03.27v.286h-4.46Z" transform="translate(-394.558 -273.767)"></path><path class="a" d="M630.728,283.19a3.07,3.07,0,0,0,1.5-.411q.341-.289.342-1.467v-9.3a2.175,2.175,0,0,0-.337-1.454,2.484,2.484,0,0,0-1.5-.424v-.387h11.1l.072,2.99h-.531a2.964,2.964,0,0,0-.8-1.788,4.432,4.432,0,0,0-2.368-.406h-2.845q-.461,0-.568.148a1.011,1.011,0,0,0-.108.557v4.664h3.225a2.461,2.461,0,0,0,1.7-.4,3.416,3.416,0,0,0,.591-1.6h.49v4.827h-.49a3.468,3.468,0,0,0-.6-1.607,2.458,2.458,0,0,0-1.694-.393h-3.225v5.174q0,.623.394.735a13.338,13.338,0,0,0,2.356.112,7.947,7.947,0,0,0,3.138-.465,4.251,4.251,0,0,0,1.818-2.25h.581l-.949,3.531h-11.3Z" transform="translate(-427.599 -269.311)"></path><path class="a" d="M657.246,287.749a1.845,1.845,0,0,0,1.015-.362,1.728,1.728,0,0,0,.291-1.209v-5.184a2.374,2.374,0,0,0-.122-.911.806.806,0,0,0-.8-.385c-.061,0-.124,0-.189.01s-.145.017-.24.031v-.357q.418-.122,1.979-.633l.96-.317c.048,0,.076.018.086.052a.522.522,0,0,1,.015.143v1.5a10.5,10.5,0,0,1,1.467-1.2,3.058,3.058,0,0,1,1.65-.5,2.156,2.156,0,0,1,1.263.4,3.157,3.157,0,0,1,1.1,2.766v4.765a1.566,1.566,0,0,0,.294,1.062,1.294,1.294,0,0,0,.982.337v.286h-4.358v-.286a1.746,1.746,0,0,0,1.041-.413,2.1,2.1,0,0,0,.3-1.352v-4.358a2.94,2.94,0,0,0-.325-1.455,1.253,1.253,0,0,0-1.2-.576,2.2,2.2,0,0,0-1.218.408,6.9,6.9,0,0,0-.893.775v5.715a1.19,1.19,0,0,0,.327.985,1.788,1.788,0,0,0,1.031.27v.286h-4.46Z" transform="translate(-441.206 -273.767)"></path><path class="a" d="M680.528,283.5a3.149,3.149,0,0,1-.515-1.765,3.458,3.458,0,0,1,3.633-3.337,4.549,4.549,0,0,1,1.643.352,4.719,4.719,0,0,0,1.725.352q.214,0,.648-.016t.627-.016h.123v.827h-1.765q.184.429.286.746a4,4,0,0,1,.173,1.122,2.989,2.989,0,0,1-.964,2.139,3.489,3.489,0,0,1-2.6.974,7.856,7.856,0,0,1-.919-.092q-.3,0-.786.5a1.374,1.374,0,0,0-.489.817q0,.327.715.479a4.892,4.892,0,0,0,1.043.1,14,14,0,0,1,3.567.3,1.985,1.985,0,0,1,1.543,2.061,2.882,2.882,0,0,1-1.8,2.572,7.67,7.67,0,0,1-3.638.959,4.588,4.588,0,0,1-2.653-.679,1.84,1.84,0,0,1-.979-1.424,1.2,1.2,0,0,1,.259-.719,8.468,8.468,0,0,1,1.021-1.046l.671-.6.122-.122a3.137,3.137,0,0,1-.7-.357.912.912,0,0,1-.4-.725,1.406,1.406,0,0,1,.351-.832,13.542,13.542,0,0,1,1.505-1.475A2.673,2.673,0,0,1,680.528,283.5Zm1.082,7.593a6.891,6.891,0,0,0,2.21.326,5.669,5.669,0,0,0,2.755-.587,1.69,1.69,0,0,0,1.061-1.444q0-.684-.859-.908a10.463,10.463,0,0,0-2.015-.154q-.378-.01-.8-.026t-.767-.035q-.225-.01-.726-.082t-.747-.122q-.123,0-.6.643a2.078,2.078,0,0,0-.484,1.2A1.209,1.209,0,0,0,681.61,291.1Zm3.241-7.011a2.069,2.069,0,0,0,.612-1.7,5.868,5.868,0,0,0-.5-2.183,1.7,1.7,0,0,0-1.649-1.215,1.375,1.375,0,0,0-1.377.949,3.446,3.446,0,0,0-.193,1.235,4.214,4.214,0,0,0,.6,2.235,1.787,1.787,0,0,0,1.562.99A1.443,1.443,0,0,0,684.851,284.085Z" transform="translate(-452.482 -273.757)"></path><path class="a" d="M702.566,283.469a22.352,22.352,0,0,1,3.745-1.663v-.868a3.57,3.57,0,0,0-.2-1.448,1.454,1.454,0,0,0-1.439-.684,1.974,1.974,0,0,0-.99.265.842.842,0,0,0-.47.755,2.722,2.722,0,0,0,.052.414,2.932,2.932,0,0,1,.051.372.85.85,0,0,1-.378.8.95.95,0,0,1-.51.133.854.854,0,0,1-.7-.3,1.036,1.036,0,0,1-.245-.669,2.124,2.124,0,0,1,.882-1.5,3.794,3.794,0,0,1,2.587-.781,2.782,2.782,0,0,1,2.684,1.286,4.448,4.448,0,0,1,.378,2.051v4.093a2.741,2.741,0,0,0,.082.817.532.532,0,0,0,.551.4.931.931,0,0,0,.388-.071,4.032,4.032,0,0,0,.531-.347v.531a3.332,3.332,0,0,1-.7.653,2.048,2.048,0,0,1-1.163.388,1.134,1.134,0,0,1-1.005-.449,2.013,2.013,0,0,1-.342-1.072,9.591,9.591,0,0,1-1.326,1,3.475,3.475,0,0,1-1.766.551,2.122,2.122,0,0,1-1.52-.617,2.079,2.079,0,0,1-.643-1.567A2.909,2.909,0,0,1,702.566,283.469Zm3.745-1.153a9.375,9.375,0,0,0-1.938.857,2.526,2.526,0,0,0-1.47,2.061,1.569,1.569,0,0,0,.612,1.368,1.488,1.488,0,0,0,.888.286,2.439,2.439,0,0,0,1.291-.378,1.108,1.108,0,0,0,.617-.96Z" transform="translate(-463.758 -273.703)"></path><path class="a" d="M721.113,283.5a3.149,3.149,0,0,1-.515-1.765,3.458,3.458,0,0,1,3.633-3.337,4.548,4.548,0,0,1,1.643.352,4.719,4.719,0,0,0,1.725.352q.214,0,.648-.016t.628-.016H729v.827h-1.765q.184.429.286.746a4,4,0,0,1,.173,1.122,2.989,2.989,0,0,1-.964,2.139,3.489,3.489,0,0,1-2.6.974,7.853,7.853,0,0,1-.919-.092q-.3,0-.786.5a1.374,1.374,0,0,0-.49.817q0,.327.715.479a4.893,4.893,0,0,0,1.043.1,13.994,13.994,0,0,1,3.567.3,1.985,1.985,0,0,1,1.543,2.061,2.882,2.882,0,0,1-1.8,2.572,7.671,7.671,0,0,1-3.638.959,4.588,4.588,0,0,1-2.653-.679,1.841,1.841,0,0,1-.98-1.424,1.2,1.2,0,0,1,.26-.719,8.473,8.473,0,0,1,1.021-1.046l.671-.6.122-.122a3.138,3.138,0,0,1-.7-.357.912.912,0,0,1-.4-.725,1.406,1.406,0,0,1,.351-.832,13.547,13.547,0,0,1,1.505-1.475A2.673,2.673,0,0,1,721.113,283.5Zm1.082,7.593a6.892,6.892,0,0,0,2.21.326,5.669,5.669,0,0,0,2.755-.587,1.69,1.69,0,0,0,1.061-1.444q0-.684-.859-.908a10.463,10.463,0,0,0-2.015-.154q-.378-.01-.8-.026t-.767-.035q-.224-.01-.726-.082t-.747-.122q-.123,0-.6.643a2.081,2.081,0,0,0-.484,1.2A1.209,1.209,0,0,0,722.195,291.1Zm3.241-7.011a2.069,2.069,0,0,0,.612-1.7,5.867,5.867,0,0,0-.5-2.183,1.7,1.7,0,0,0-1.649-1.215,1.375,1.375,0,0,0-1.378.949,3.446,3.446,0,0,0-.193,1.235,4.214,4.214,0,0,0,.6,2.235,1.787,1.787,0,0,0,1.562.99A1.444,1.444,0,0,0,725.435,284.085Z" transform="translate(-473.34 -273.757)"></path><path class="a" d="M747.836,279.5a3.643,3.643,0,0,1,1.081,2.822h-6.481a5.429,5.429,0,0,0,1.072,3.442,2.989,2.989,0,0,0,2.3,1.079,2.9,2.9,0,0,0,1.806-.559,5.63,5.63,0,0,0,1.357-1.589l.357.122a5.814,5.814,0,0,1-1.566,2.4,3.9,3.9,0,0,1-2.812,1.1,3.44,3.44,0,0,1-2.965-1.449,5.552,5.552,0,0,1-1.046-3.338,5.433,5.433,0,0,1,1.214-3.541,3.889,3.889,0,0,1,3.164-1.49A3.609,3.609,0,0,1,747.836,279.5Zm-4.888.781a4.064,4.064,0,0,0-.47,1.388h4.307a4.235,4.235,0,0,0-.388-1.521,1.761,1.761,0,0,0-1.674-.9A1.95,1.95,0,0,0,742.947,280.281Z" transform="translate(-484.239 -273.811)"></path><path class="a" d="M759.875,287.834a2.33,2.33,0,0,0,1.062-.265,1.392,1.392,0,0,0,.408-1.184v-5.277a1.657,1.657,0,0,0-.2-.99.818.818,0,0,0-.658-.235,1.85,1.85,0,0,0-.322.021,1.628,1.628,0,0,0-.25.071v-.357l.735-.245q.4-.133,1.306-.48t.959-.347a.058.058,0,0,1,.062.051,1.269,1.269,0,0,1,.01.194v1.378a7.786,7.786,0,0,1,1.745-1.271,3.457,3.457,0,0,1,1.511-.352,2.108,2.108,0,0,1,1.674.715,3.11,3.11,0,0,1,.54,1.051,8.505,8.505,0,0,1,1.316-1.133,3.581,3.581,0,0,1,1.98-.633,2.141,2.141,0,0,1,2.194,1.337,6.624,6.624,0,0,1,.316,2.389v4.235a1.218,1.218,0,0,0,.322.985,2.262,2.262,0,0,0,1.158.342v.265h-4.6v-.286a2.016,2.016,0,0,0,1.168-.357,1.615,1.615,0,0,0,.28-1.123v-4.4a3.716,3.716,0,0,0-.214-1.459,1.463,1.463,0,0,0-1.48-.838,2.346,2.346,0,0,0-1.317.439,6.5,6.5,0,0,0-.928.817v5.225a2.242,2.242,0,0,0,.29,1.255,1.472,1.472,0,0,0,1.23.459v.265h-4.685v-.265a1.872,1.872,0,0,0,1.235-.469,3.38,3.38,0,0,0,.265-1.715V282.8a7.613,7.613,0,0,0-.2-2.159,1.371,1.371,0,0,0-1.429-1,2.455,2.455,0,0,0-1.224.342,3.849,3.849,0,0,0-1.062.893v5.582a1.606,1.606,0,0,0,.271,1.072,1.666,1.666,0,0,0,1.179.306v.265h-4.643Z" transform="translate(-493.972 -273.832)"></path><path class="a" d="M800.368,279.5a3.642,3.642,0,0,1,1.082,2.822h-6.481a5.429,5.429,0,0,0,1.072,3.442,2.989,2.989,0,0,0,2.3,1.079,2.9,2.9,0,0,0,1.806-.559,5.624,5.624,0,0,0,1.357-1.589l.358.122a5.82,5.82,0,0,1-1.567,2.4,3.9,3.9,0,0,1-2.811,1.1,3.441,3.441,0,0,1-2.965-1.449,5.556,5.556,0,0,1-1.046-3.338,5.433,5.433,0,0,1,1.214-3.541,3.889,3.889,0,0,1,3.164-1.49A3.608,3.608,0,0,1,800.368,279.5Zm-4.888.781a4.053,4.053,0,0,0-.469,1.388h4.307a4.225,4.225,0,0,0-.388-1.521,1.76,1.76,0,0,0-1.673-.9A1.95,1.95,0,0,0,795.479,280.281Z" transform="translate(-511.237 -273.811)"></path><path class="a" d="M812.449,287.749a1.846,1.846,0,0,0,1.015-.362,1.728,1.728,0,0,0,.291-1.209v-5.184a2.375,2.375,0,0,0-.122-.911.805.805,0,0,0-.8-.385c-.061,0-.124,0-.189.01s-.144.017-.24.031v-.357q.418-.122,1.979-.633l.96-.317c.048,0,.076.018.086.052a.522.522,0,0,1,.015.143v1.5a10.464,10.464,0,0,1,1.467-1.2,3.056,3.056,0,0,1,1.65-.5,2.155,2.155,0,0,1,1.263.4,3.156,3.156,0,0,1,1.1,2.766v4.765a1.568,1.568,0,0,0,.294,1.062,1.294,1.294,0,0,0,.982.337v.286h-4.358v-.286a1.746,1.746,0,0,0,1.041-.413,2.1,2.1,0,0,0,.3-1.352v-4.358a2.94,2.94,0,0,0-.325-1.455,1.253,1.253,0,0,0-1.2-.576,2.2,2.2,0,0,0-1.218.408,6.9,6.9,0,0,0-.893.775v5.715a1.19,1.19,0,0,0,.327.985,1.788,1.788,0,0,0,1.03.27v.286h-4.46Z" transform="translate(-520.97 -273.767)"></path><path class="a" d="M838.8,276v.735H836.72l-.021,5.878a3.931,3.931,0,0,0,.133,1.174.943.943,0,0,0,.959.7,1.161,1.161,0,0,0,.638-.174,3.354,3.354,0,0,0,.617-.552l.265.225-.224.306a3.261,3.261,0,0,1-1.123,1.011,2.546,2.546,0,0,1-1.143.3,1.608,1.608,0,0,1-1.633-1.071,4.438,4.438,0,0,1-.235-1.613v-6.184h-1.113a.309.309,0,0,1-.076-.061.124.124,0,0,1-.025-.082.245.245,0,0,1,.046-.158,3.129,3.129,0,0,1,.291-.261,8.735,8.735,0,0,0,1.015-.943q.311-.362,1.465-1.914a.336.336,0,0,1,.158.021c.017.014.025.065.025.153V276Z" transform="translate(-531.934 -271.145)"></path></g><circle class="a" cx="2.062" cy="2.062" r="2.062" transform="translate(192.475 195.772)"></circle><circle class="a" cx="2.062" cy="2.062" r="2.062" transform="translate(297.224 195.772)"></circle><g transform="translate(14.144 122.815)"><g transform="translate(28.919)"><path class="a" d="M90.057,138.719a1.9,1.9,0,0,1-1.9-1.9,1.871,1.871,0,0,1,.033-.348,6.045,6.045,0,0,0-2.226-2.029V135.9a1.649,1.649,0,0,1,.281.92,1.672,1.672,0,0,1-3.344,0,1.649,1.649,0,0,1,.281-.92v-1.555a4.8,4.8,0,0,0-2.408,2.323c0,.051.007.1.007.152a1.9,1.9,0,1,1-2.044-1.893,16.329,16.329,0,0,0,3.692-4.547l.144-.293.26.2a3.006,3.006,0,0,0,3.456.017l.249-.183.147.272c.861,1.59,2.2,3.664,3.692,4.559a1.9,1.9,0,0,1-.32,3.772Zm-4.633-5.062.36.127a6.34,6.34,0,0,1,2.919,2.483l.067.1-.03.116a1.36,1.36,0,1,0,1.507-1.01l-.1-.034a12.4,12.4,0,0,1-3.8-4.536,3.673,3.673,0,0,1-3.58-.012,17.422,17.422,0,0,1-3.755,4.5l-.073.062-.1,0a1.372,1.372,0,1,0,1.381,1.191l-.01-.079.035-.072a5.223,5.223,0,0,1,3.125-2.788l.341-.094v2.457l-.053.071a1.12,1.12,0,0,0-.228.673,1.133,1.133,0,0,0,2.266,0,1.12,1.12,0,0,0-.228-.673l-.054-.071Z" transform="translate(-76.98 -123.555)"></path><path class="a" d="M92.6,118.052a1.672,1.672,0,1,1,1.672-1.672A1.674,1.674,0,0,1,92.6,118.052Zm0-2.805a1.133,1.133,0,1,0,1.133,1.133A1.135,1.135,0,0,0,92.6,115.247Z" transform="translate(-85.002 -114.708)"></path><path class="a" d="M90.689,126.178a2.606,2.606,0,1,1,3.079-2.563A2.86,2.86,0,0,1,90.689,126.178Zm0-4.586a2.076,2.076,0,1,0,2.54,2.023A2.329,2.329,0,0,0,90.689,121.592Z" transform="translate(-83.096 -118.359)"></path></g><g transform="translate(22.596 98.173)"><path class="a" d="M68.521,357.131h-2.8l-3.05-2.24-.578-8.985,4.411.977.307,5.358h2.156l-.743,1.014a2.751,2.751,0,0,0-.493,1.62,2.89,2.89,0,0,0,.308,1.327Zm-2.385-1.274h.431a4.357,4.357,0,0,1-.111-.983,4.277,4.277,0,0,1,.219-1.36H65.606l-.321-5.6-1.814-.4.431,6.7Z" transform="translate(-62.09 -345.905)"></path><path class="a" d="M83.56,360.583H80.372l.482-.93a2.885,2.885,0,0,0,.309-1.327,2.75,2.75,0,0,0-.493-1.62l-.742-1.014H81.68l-.139-3.787H85.99l.137,6.379Zm-1.234-1.274h.747l1.768-1.583-.1-4.547H82.863L83,356.966h-.784a4.277,4.277,0,0,1,.219,1.36A4.358,4.358,0,0,1,82.326,359.309Z" transform="translate(-72.353 -349.357)"></path></g><g transform="translate(16.276 43.603)"><path class="a" d="M66.971,219.129c.113-.072.227-.144.34-.218.037-.024.067-.07.1-.076.219-.038.44-.068.661-.1.068-.01.137-.01.2-.023.4-.078.8-.163,1.2-.237.707-.131,1.413-.264,2.122-.383.494-.083,1-.106,1.486-.222.822-.2,1.661-.282,2.49-.427.19-.033.386-.031.58-.05a.223.223,0,0,1,.257.175.814.814,0,0,1,.024.714,3.606,3.606,0,0,0-.228.7c.42-.049.787-.087,1.153-.138a4.535,4.535,0,0,1,1.084-.106l.011.1c-.421.065-.842.134-1.264.2-1.13.166-2.262.318-3.389.5-1.3.206-2.589.437-3.883.657a.209.209,0,0,0-.067.011c-.366.211-.726.031-1.079-.036a1.38,1.38,0,0,1-.511-.259.32.32,0,0,1,.024-.527,2.033,2.033,0,0,1,.659-.257c.615-.117,1.237-.2,1.855-.3.992-.16,1.981-.333,2.974-.484.776-.118,1.556-.211,2.334-.318a2.377,2.377,0,0,0,.256-.067l-.161-.354c-.246.032-.492.062-.737.1-.463.066-.927.125-1.388.206-.416.072-.824.2-1.241.249-1.62.205-3.214.567-4.826.823a2.82,2.82,0,0,0-.708.285c-.036.017-.059.123-.042.174a.628.628,0,0,0,.136.194,3.005,3.005,0,0,0,1.867.99c.095.016.187.035.266-.086.042-.064.184-.074.283-.087.622-.081,1.246-.146,1.867-.235.361-.051.714-.15,1.075-.2a13.179,13.179,0,0,0,1.317-.149c.566-.139,1.144-.178,1.714-.276.468-.08.945-.1,1.416-.164s.909-.147,1.378-.225l-.019-.256.067-.014c.026.088.091.186.073.262-.123.5-.265,1-.4,1.5l-.073-.018.312-1.3c-.173.013-.3.014-.415.032q-1.389.209-2.776.425c-1.363.214-2.726.434-4.09.645-.423.066-.849.107-1.272.175a2.428,2.428,0,0,0-.414.148c-.2.694-.406,1.4-.6,2.12q-.848,3.159-1.683,6.322c-.047.176-.065.36-.116.535s-.133.357-.2.535a2.376,2.376,0,0,0-.075.225q-.534,2.071-1.065,4.143c-.07.275-.127.553-.195.852l.462.183a4.877,4.877,0,0,1,1.928,1.209,1.016,1.016,0,0,0,.837.393,3.356,3.356,0,0,1,.893.215c.215.063.423.151.68.245-.015-.223-.015-.415-.044-.6a1.432,1.432,0,0,1,.162-.991,2.449,2.449,0,0,0,.239-.521.55.55,0,0,0-.015-.356.729.729,0,0,1-.046-.589c-.381-.38-.275-.837-.216-1.27a2.03,2.03,0,0,1,.628-1.229,4.048,4.048,0,0,1,.107-3.315.78.78,0,0,0-.021-.829,2,2,0,0,1,.516-2.338,3.3,3.3,0,0,1,1.18-.609.729.729,0,0,1,.3,0q1.766.227,3.532.459c.044.006.09,0,.181,0l.173-.667.06.01c-.018.1-.037.2-.053.293s-.037.218-.06.363c.264.038.5.083.731.1.842.076,1.685.135,2.527.216.474.046.945.125,1.418.189.034,0,.067.011.1.013.591.045,1.181.111,1.773.127.546.015,1.093-.029,1.64-.035.354,0,.707.021,1.061.024.293,0,.587.006.879-.018a.3.3,0,0,1,.344.257,1.038,1.038,0,0,1-.023.649l-.388.058a6.771,6.771,0,0,0-.066,1.9l.561.031c.035.2.074.411.1.618.008.053,0,.149-.029.161-.243.1-.1.317-.141.5h-.67c-.044.869-.042,1.721,0,2.572.159.046.3.084.44.129.029.009.05.044.07.063l-.127.769-.628.029-.07.348-.229.054a2.051,2.051,0,0,0-.079,1,.233.233,0,0,0,.107.156c.336.186.361.291.127.607-.006.008-.019.012-.052.032-.235-.139-.391.08-.608.178.008.068.02.144.027.219a2.189,2.189,0,0,1,.028.406c-.03.3-.158.411-.468.424-.045,0-.09,0-.167,0a7.55,7.55,0,0,0-.04,2.059,2.031,2.031,0,0,1,.4.111c.054.027.08.132.1.207.108.476-.1.7-.6.691q-1.625-.036-3.25-.065c-.217,0-.434,0-.651.016a7.45,7.45,0,0,1-1.418-.13c-.392-.046-.786-.074-1.18-.1-.863-.062-1.727-.112-2.59-.18-.474-.037-.946-.1-1.419-.15a.55.55,0,0,0-.141.024v.188a5.3,5.3,0,0,1,1.416.826.46.46,0,0,0,.3.56q.681.315,1.377.6a.965.965,0,0,0,.4.049c.163-.009.226.054.252.206a1.114,1.114,0,0,0,.124.253,8.709,8.709,0,0,1-.828.431c-.43.172-.878.3-1.313.456-.545.2-1.082.414-1.628.61-.451.162-.91.3-1.361.457-.3.1-.589.237-.889.341-1.01.355-2.023.7-3.034,1.057a.649.649,0,0,1-.559-.015,2.9,2.9,0,0,0-.362-.1c-.158-.058-.31-.133-.463-.2-.072-.033-.138-.081-.212-.107-.761-.27-1.528-.525-2.283-.809-.628-.236-1.243-.506-1.865-.758-.137-.055-.281-.093-.42-.145-.321-.119-.64-.242-.961-.361-.223-.084-.445-.171-.671-.244a.234.234,0,0,0-.192.018,1.957,1.957,0,0,1-1.093.338,5.528,5.528,0,0,1-1.389.078,1.38,1.38,0,0,1-1.125-.8c-.177-.344-.344-.695-.509-1.046a3.032,3.032,0,0,1-.113-.329c-.671-.268-1.333-.538-2-.8-.445-.173-.9-.323-1.346-.495-.319-.123-.631-.264-.946-.4a1.469,1.469,0,0,0-.188-.082,38.358,38.358,0,0,1-3.664-1.345l-.622-.239v-.491a2.428,2.428,0,0,1,1.386-.2l.718-.522c-.021-.069-.045-.166-.079-.258-.248-.675-.494-1.351-.749-2.024-.162-.429-.265-.877-.465-1.295a8.647,8.647,0,0,1-.307-.9c-.082-.236-.177-.467-.264-.7a1.452,1.452,0,0,1-.087-.29,5.185,5.185,0,0,0-.458-1.153A12.389,12.389,0,0,1,47.275,228a3.052,3.052,0,0,1,.6-2.615c.128-.155.146-.388.355-.484.082-.038.157-.11.24-.119a6.574,6.574,0,0,1,1.069-.077,5.669,5.669,0,0,1,.964.2c.842.2,1.681.4,2.523.6.476.112.954.217,1.468.333.008-.135.02-.245.019-.354-.006-.709-.016-1.417-.023-2.126,0-.305.049-.371.342-.387a1.06,1.06,0,0,1,.437.045,3.938,3.938,0,0,0,1.378.222c.467.012.932.048,1.435.075.046-.134.2-.156.361-.16a.978.978,0,0,0,.845-.479,1.571,1.571,0,0,1,1.021-.657,5.259,5.259,0,0,1,2.065.09c1.088.208,2.175.421,3.262.63.247.048.314.008.378-.219.221-.779.447-1.557.659-2.338.095-.35.158-.709.236-1.064ZM50.388,226.59c-.074-.071-.142-.148-.222-.211a.814.814,0,0,0-1.248.2,2.05,2.05,0,0,0-.218.462,2.73,2.73,0,0,0-.115,1.117,5.845,5.845,0,0,0,.447,1.611c.209.554.4,1.114.6,1.672a.654.654,0,0,0,.034.1,2.947,2.947,0,0,1,.385,1.033.793.793,0,0,0,.084.185c.108.251.222.5.321.754.178.456.346.917.522,1.375a5.729,5.729,0,0,1,.284.733c.083.365.353.624.457.976a7.431,7.431,0,0,0,1.778-.393c-.219-.718-.411-1.4-.633-2.068-.493-1.49-1-2.975-1.5-4.462-.084-.248-.153-.5-.252-.745a14.407,14.407,0,0,1-.733-2.341c.034.028.081.049.1.085a9.147,9.147,0,0,1,.724,1.918,5.089,5.089,0,0,0,.143.526q.822,2.4,1.653,4.791c.239.688.494,1.369.738,2.055.047.133.09.245.273.128-.028-.123,0-.262-.151-.348a.365.365,0,0,1-.135-.188c-.175-.493-.354-.984-.507-1.483-.129-.422-.206-.86-.341-1.28q-.506-1.577-1.047-3.144c-.293-.847-.57-1.7-.918-2.527a4.107,4.107,0,0,0-.27-.421c-.187-.323-.383-.643-.544-.979a1.351,1.351,0,0,0-.865-.673.883.883,0,0,0-1.211.51c-.079.188-.2.359-.282.546a2.065,2.065,0,0,0-.222.6,4.68,4.68,0,0,0,.251,2.324c.32.769.615,1.549.9,2.332.528,1.436,1.043,2.876,1.56,4.315.092.257.165.52.249.78.045.137.093.272.137.4.148-.007.222-.051.2-.17a1.721,1.721,0,0,0-.087-.256,13.985,13.985,0,0,1-.521-1.447,8.783,8.783,0,0,1-.519-1.536,1.775,1.775,0,0,1-.266-.695c-.055-.172-.1-.348-.168-.516a10.085,10.085,0,0,1-.392-.98,18.1,18.1,0,0,0-.639-1.829,10.852,10.852,0,0,1-.4-1.165,2.335,2.335,0,0,1,.073-1.672c.1-.214.16-.451.261-.666a.948.948,0,0,1,1.058-.445A2.12,2.12,0,0,1,50.388,226.59Zm.7,10.406.006.076.446.107c.121.029.245.053.365.089.327.1.648.224.98.3.83.186,1.651.408,2.484.587.612.131,1.216.3,1.839.377a.441.441,0,0,1,.256.082.763.763,0,0,0,.495.191,2.967,2.967,0,0,1,1.515.665c.2.183.421.351.625.535a.343.343,0,0,0,.405.065c.264-.11.534-.2.8-.3,1.283-.445,2.568-.88,3.848-1.332.828-.292,1.649-.606,2.473-.912a1.622,1.622,0,0,0,.2-.105,1.885,1.885,0,0,0-.679-.691,4.451,4.451,0,0,0-1.466-.552c-.51-.113-1.036-.1-1.546-.241-.622-.177-1.27-.256-1.905-.386-.615-.127-1.226-.256-1.829-.43a1.759,1.759,0,0,0-1.047.028,6.705,6.705,0,0,1-.691.2c-1.363.286-2.728.559-4.091.848-1.038.219-2.073.453-3.11.684C51.33,236.908,51.208,236.957,51.084,237ZM67.04,219.514c-.137.461-.254.827-.353,1.2-.233.87-.455,1.743-.688,2.613-.144.538-.3,1.072-.451,1.61-.1.385-.19.776-.3,1.161-.153.537-.338,1.066-.478,1.607-.262,1.017-.482,2.044-.755,3.058a20.847,20.847,0,0,0-.882,3.725c-.02.252,0,.506,0,.8l2.285.183c.455-1.645.908-3.259,1.348-4.877s.873-3.255,1.307-4.883c.429-1.608.857-3.217,1.3-4.865A3.9,3.9,0,0,1,67.04,219.514Zm4.371,12.659,10.456,1.307c-.085-.223-.139-.383-.207-.538a2.032,2.032,0,0,1,.17-2.025c.19-.3.4-.583.6-.876.054-.079.1-.166.163-.288-.592-.065-1.131-.118-1.668-.183-.956-.114-1.912-.235-2.868-.352a1.246,1.246,0,0,0-.2-.02,6.293,6.293,0,0,1-1.312-.112c-.089-.015-.177-.042-.266-.048-.238-.018-.478-.019-.715-.045a11.7,11.7,0,0,0-1.407-.158c-.377.006-.73-.183-1.108-.091-.04.01-.089-.017-.134-.023-.339-.041-.678-.077-1.017-.121-.144-.018-.217.05-.309.156a1.48,1.48,0,0,0-.285.643,11.289,11.289,0,0,0-.262,1.2A2.306,2.306,0,0,0,71.411,232.174Zm3.958,8.652a2.482,2.482,0,0,0-.212-.164c-.443-.257-.885-.518-1.333-.766-.406-.225-.824-.428-1.229-.653-.309-.172-.606-.366-.909-.548a12.527,12.527,0,0,0-2.048-1.024,2.252,2.252,0,0,0-1.917.1,5.774,5.774,0,0,1-.7.275c-.394.142-.8.264-1.185.418a7.181,7.181,0,0,1-1.275.483,6.516,6.516,0,0,0-.855.3c-.194.066-.392.117-.587.178-.381.118-.762.236-1.141.361a1.419,1.419,0,0,0-.233.131c.607.157,1.183.3,1.752.456.416.118.823.267,1.235.4.259.082.527.142.782.236.436.161.868.336,1.3.516.451.189.911.363,1.339.594a2.877,2.877,0,0,1,1.07.771.411.411,0,0,0,.621.125.843.843,0,0,1,.29-.1c.446-.092.813-.389,1.268-.473a3.4,3.4,0,0,0,.78-.324c.465-.219.958-.368,1.433-.566.373-.155.752-.313,1.138-.443A6.7,6.7,0,0,0,75.369,240.826Zm7.625-14.3c-.157-.032-.275-.062-.394-.081-.785-.119-1.567-.251-2.36-.327-1.011-.1-2.017-.247-3.026-.361-1.214-.137-2.429-.263-3.644-.388a1.2,1.2,0,0,0-.864.152.772.772,0,0,1-.287.107,1.231,1.231,0,0,0-.958.925c-.049.152-.1.3-.137.459a1.192,1.192,0,0,0,.045.741c.093.22.2.436.295.655a.475.475,0,0,0,.141.02,5.038,5.038,0,0,1,1.866.142,2.974,2.974,0,0,0,.475.048c.2.006.408-.026.609-.008.564.051,1.126.12,1.689.181l.468.05c.544.061,1.089.12,1.632.186a5.6,5.6,0,0,0,.73.109,12.474,12.474,0,0,1,2.073.239,4.606,4.606,0,0,1,1.363.257A2.748,2.748,0,0,1,82.994,226.525ZM69.12,244.744c.07-.351.131-.7.213-1.039a.56.56,0,0,0-.113-.483,2.535,2.535,0,0,0-.562-.539,12.811,12.811,0,0,0-3.38-1.555c-.839-.259-1.7-.454-2.538-.712a4.775,4.775,0,0,0-2.335-.1.387.387,0,0,1-.4-.1,3.147,3.147,0,0,0-.554-.5,5.341,5.341,0,0,0-1.033-.524,26.606,26.606,0,0,0-3.355-.961c-.536-.11-1.076-.207-1.608-.335-.853-.2-1.7-.441-2.552-.643-.642-.152-.646-.138-1.059.358-.011.014-.008.041-.015.086.1.042.2.09.3.13q1.777.675,3.555,1.347c1.527.576,3.054,1.153,4.584,1.719a2.324,2.324,0,0,0,.534.077,2.708,2.708,0,0,1,.5.051,2.436,2.436,0,0,1,.992.59.6.6,0,0,0,.184.147c.478.183.956.365,1.44.531,1.282.44,2.566.871,3.849,1.307a2.377,2.377,0,0,1,.287.111,22.414,22.414,0,0,0,2.476.873C68.7,244.647,68.876,244.68,69.12,244.744Zm1.645-6.815,1.623.876c.274.148.545.3.825.437a2.642,2.642,0,0,0,.748.31c.723.1,1.453.141,2.181.2q1.585.133,3.172.259c.314.025.629.035.948.051a8.6,8.6,0,0,1-.076-.956,3.251,3.251,0,0,1,.785-2.038,2.317,2.317,0,0,0,.151-.234c-.078-.017-.12-.03-.163-.035q-2.263-.239-4.527-.477c-.986-.1-1.972-.219-2.959-.322-.76-.08-1.521-.148-2.281-.228a.323.323,0,0,0-.379.257,2.348,2.348,0,0,0-.124,1.5A3.518,3.518,0,0,1,70.765,237.929Zm-8.926-2.837c.047-.449.105-.868.131-1.287q.073-1.169.115-2.341c.059-1.608.11-3.216.164-4.824.021-.612.017-1.227.076-1.836a2.467,2.467,0,0,0-.18-1.116,1.017,1.017,0,0,0-.909-.617.471.471,0,0,0-.291.069,1.5,1.5,0,0,0-.826,1.258q-.036.787-.065,1.573c-.017.456-.023.913-.045,1.369-.05,1.037-.113,2.074-.16,3.111-.033.717-.042,1.435-.071,2.153a4.367,4.367,0,0,0-.054.876c.065.37-.082.718-.028,1.077.012.084.028.168.039.23Zm20.236-1.338a.994.994,0,0,0-.208-.1c-.314-.056-.628-.111-.944-.152-1.721-.224-3.44-.453-5.162-.662-1.326-.161-2.655-.287-3.981-.445a.677.677,0,0,0-.718.344,1.955,1.955,0,0,0-.291,1.69c.873.112,1.753.223,2.634.337s1.743.225,2.614.34,1.765.236,2.648.351,1.742.268,2.636.334A1.682,1.682,0,0,1,82.075,233.755ZM50.12,225.23c.065.133.105.225.155.313a12.236,12.236,0,0,1,.805,1.6c.568,1.494,1.144,2.985,1.642,4.5.113.346.256.683.385,1.024q.157.417.31.834a3.822,3.822,0,0,0,.266.822.549.549,0,0,0,.205.6.435.435,0,0,1,.071.155c.114.308.227.617.355.966l1.278-.292c-.182-.217-.331-.385-.47-.561a2.428,2.428,0,0,1-.567-1.84,1.73,1.73,0,0,0,.012-.239c-.013-.582-.041-1.164-.039-1.746,0-.707.042-1.413.047-2.12.006-.788-.007-1.577-.015-2.365,0-.192-.014-.383-.02-.559a.849.849,0,0,0-.121-.062q-1.086-.306-2.172-.609c-.021-.006-.048-.02-.063-.012-.19.095-.358-.019-.529-.062-.451-.112-.9-.24-1.345-.359A.98.98,0,0,0,50.12,225.23Zm5.7-1.848v.432c0,1.3,0,2.6,0,3.907,0,1.044-.063,2.087-.017,3.131.025.547,0,1.1.046,1.642a1.784,1.784,0,0,0,1.332,1.518c.323.077.35.063.478-.258a3.364,3.364,0,0,0,.195-1.177c.028-1.119.035-2.238.068-3.357a43.308,43.308,0,0,1,.145-4.379.915.915,0,0,0-.009-.135c-.006-.2-.011-.408-.014-.611,0-.145,0-.29,0-.458A9.227,9.227,0,0,0,55.821,223.381Zm10.023-.3c-1.214-.174-2.341-.515-3.513-.672a2.173,2.173,0,0,1,.918,1.621,4.857,4.857,0,0,1,.067.852c-.012.864-.047,1.728-.063,2.592-.009.525.008,1.051,0,1.576-.015.753-.044,1.506-.068,2.259-.011.352-.028.7-.034,1.055,0,.038.052.077.124.176.232-.848.443-1.635.663-2.419s.464-1.539.661-2.318.479-1.554.628-2.358S65.675,223.894,65.844,223.081Zm-7.6.367c-.013.485-.026.94-.037,1.4q-.034,1.318-.067,2.637c-.02.787-.068,1.576-.048,2.363a27.246,27.246,0,0,1-.069,2.737,7.738,7.738,0,0,0,.034.868c-.046.1-.13.271-.212.446a1.242,1.242,0,0,1-1.257.669,1.283,1.283,0,0,1-.8-.425,3.174,3.174,0,0,1-.5-.834,2.2,2.2,0,0,1-.076-.773c.009-1.574.028-3.148.043-4.722a.48.48,0,0,0-.013-.2,1.212,1.212,0,0,1-.042-.64c.01-.171.017-.342.014-.512-.011-.661-.024-1.322-.042-1.983-.012-.426-.034-.852-.051-1.269-.361-.1-.4-.076-.4.228q.015,2.225.029,4.451c.01,1.838.015,3.677.028,5.515,0,.308.029.616.055.923a.733.733,0,0,0,.081.25,4.3,4.3,0,0,0,.768.986.359.359,0,0,0,.392.116c.422-.1.845-.192,1.273-.261a1.006,1.006,0,0,0,.826-.625,8.508,8.508,0,0,0,.29-.945c.018-.063.033-.169,0-.2-.184-.158-.107-.358-.1-.539.057-1.791.13-3.582.181-5.373.038-1.3.051-2.6.073-3.905,0-.121-.009-.243-.015-.377Zm28.426,6.923c-.2-.013-.335-.028-.472-.029-.626-.006-1.252-.008-1.878-.011a7.3,7.3,0,0,0-.818.008.8.8,0,0,0-.422.189,1.955,1.955,0,0,0-.632,1.412,1.488,1.488,0,0,0,.4,1.061.422.422,0,0,0,.391.158c.579-.043,1.16-.074,1.741-.1a8.844,8.844,0,0,0,1.294-.017c.3-.056.314-.023.332-.343q.05-.885.085-1.77C86.7,230.753,86.679,230.574,86.672,230.371ZM75.581,240.989c-.344.121-.691.229-1.028.363-1.41.562-2.817,1.132-4.226,1.7-.766.307-.771.3-.928,1.121a5.23,5.23,0,0,0-.047.574,65.846,65.846,0,0,0,6.792-2.535Zm-13.118-5.833c.019-.158.045-.314.054-.471.079-1.377.151-2.756.236-4.133.041-.66.122-1.317.16-1.977.079-1.357.141-2.714.21-4.072a.532.532,0,0,0,0-.2,8.06,8.06,0,0,0-.434-1.027c-.335-.593-.352-.583-.982-.816a2.32,2.32,0,0,0-2.6.687,1.079,1.079,0,0,0-.287.68c-.05,1.69,0,3.381-.124,5.07-.063.83-.055,1.666-.079,2.5,0,.137-.012.275-.008.411q.02.615.049,1.229c0,.086.022.172.034.258a1.557,1.557,0,0,0,.126-.574q.115-2.327.223-4.655.078-1.66.149-3.321a2.7,2.7,0,0,0-.036-.3,1.616,1.616,0,0,1-.015-.464,1.687,1.687,0,0,1,2.072-1.264,1.369,1.369,0,0,1,.839.431,1.793,1.793,0,0,1,.469,1.593.966.966,0,0,0-.021.239c-.015.479-.022.959-.043,1.439-.024.535-.075,1.07-.089,1.606-.016.614,0,1.23,0,1.844,0,.148-.021.3-.029.444-.013.228-.031.456-.033.684-.006.639,0,1.277-.011,1.916-.008.411-.044.821-.063,1.232-.011.239-.028.48-.02.719C62.209,235,62.207,235.172,62.463,235.156Zm8.518.375,10.106,1.1.141-.569c-.775-.216-9.829-1.413-10.265-1.355A1.033,1.033,0,0,0,70.981,235.531Zm12.527-6.336,3.267-.083a9.175,9.175,0,0,0,.082-1.953c-.578-.04-1.112-.086-1.646-.111a9.451,9.451,0,0,0-1.091,0,.871.871,0,0,0-.814.718A1.382,1.382,0,0,0,83.509,229.195Zm1.461,8.392c-.357,0-.673,0-.99,0-.615.005-1.231.025-1.845.016a.756.756,0,0,0-.8.508,1.389,1.389,0,0,0-.007.973,1.089,1.089,0,0,0,.324.372.357.357,0,0,0,.222.047q1.489-.01,2.977-.028c.02,0,.04-.017.1-.043C85,238.854,84.969,238.255,84.97,237.587Zm-26.1-2.519c.164-.037.253-.054.34-.077.3-.081.3-.082.315-.386q.028-.7.049-1.4c.014-.445.027-.89.035-1.335.021-1.06.168-2.115.13-3.177-.008-.217,0-.434.007-.651.042-1.141.09-2.281.126-3.421.008-.279-.045-.555.166-.8.147-.169.255-.372.387-.555a2.774,2.774,0,0,1,.21-.227,1.376,1.376,0,0,0-.952.34.738.738,0,0,0-.309.656,2.555,2.555,0,0,1,.005.769c-.068.834-.111,1.672-.146,2.509-.034.8-.03,1.611-.071,2.415-.06,1.185-.15,2.369-.219,3.553C58.91,233.86,58.9,234.44,58.87,235.068ZM76.212,241.6l-.074.055c.047.109.089.222.142.328.149.3.109.462-.19.613a5.022,5.022,0,0,1-.575.22,6.162,6.162,0,0,0-1.242.407,8.411,8.411,0,0,1-.884.319.727.727,0,0,1-.284.1,3.333,3.333,0,0,0-1.083.372,3.723,3.723,0,0,1-.655.232,1.266,1.266,0,0,0-.4.123c-.111.054-.234.082-.35.126s-.243.1-.368.148c-.333.118-.665.243-1,.342a.644.644,0,0,1-.366-.018c-.409-.141-.81-.306-1.217-.452q-2.1-.751-4.194-1.5c-.419-.15-.833-.313-1.254-.459-.344-.119-.693-.222-1.042-.327a.546.546,0,0,0-.155,0c-.046.168.061.2.156.238.213.082.427.162.642.24,1.445.528,2.892,1.053,4.335,1.586.545.2,1.082.424,1.623.635a1.059,1.059,0,0,0,.355.116,1.163,1.163,0,0,1,.667.235.413.413,0,0,0,.45.034,4.468,4.468,0,0,1,.461-.2c.577-.213,1.155-.421,1.732-.631q2.929-1.066,5.857-2.133c.068-.025.132-.063.244-.118A11.946,11.946,0,0,0,76.212,241.6Zm9.893-7.332c-.212,0-.348,0-.484,0-.525,0-1.051,0-1.576.014-.4.011-.8.042-1.193.079a1.951,1.951,0,0,0-.394.111.759.759,0,0,0-.352,1.053,32.208,32.208,0,0,0,3.9-.051Zm1.3-4.251-.02-.107c-.143-.008-.287-.025-.43-.024-1.268.01-2.535.026-3.8.032a.723.723,0,0,0-.676.382c-.189.326-.386.648-.564.98a1.929,1.929,0,0,0,.133,2.017.894.894,0,0,0,.763.424c.588.018,1.175,0,1.763,0,.524,0,1.048.007,1.572.009.056,0,.112-.011.168-.016.156-.014.313-.029.469-.041.1-.008.2-.011.318-.017l-.02-.3c-.375,0-.727.006-1.079,0-.73-.016-1.46-.046-2.19-.055a3.02,3.02,0,0,0-.676.076.372.372,0,0,1-.381-.071,1.746,1.746,0,0,1-.34-.457,2.014,2.014,0,0,1-.122-1.239,2.4,2.4,0,0,1,.526-1.173.536.536,0,0,1,.41-.21c.638-.01,1.276-.037,1.914-.058s1.3-.038,1.95-.065A1.6,1.6,0,0,0,87.4,230.018Zm-35.9,6.639c-.032-.081-.049-.123-.065-.164-.3-.777-.6-1.553-.9-2.331-.11-.286-.193-.583-.314-.864a5.239,5.239,0,0,1-.548-1.469.984.984,0,0,0-.084-.224c-.365-.957-.715-1.92-1.1-2.869a2.338,2.338,0,0,1-.11-1.31c.05-.291.1-.583.172-.869a.746.746,0,0,1,.168-.251,1.169,1.169,0,0,1,.8-.373c-.088-.1-.133-.182-.2-.217a.759.759,0,0,0-.982.365c-.1.265-.143.554-.247.818a2.248,2.248,0,0,0,.026,1.639q1.069,3,2.141,6c.106.3.181.608.286.907.117.332.249.658.379.985.045.113.1.221.156.34Zm35.93-7.242c-.265-.024-.5-.06-.737-.063-.9-.011-1.8-.013-2.705-.015a.926.926,0,0,0-.269.035c-.335.1-.4.079-.561-.225a2.037,2.037,0,0,1,.24-2.069.5.5,0,0,1,.294-.139c.4-.038.8-.068,1.194-.075.708-.011,1.416,0,2.124-.006.13,0,.259-.023.474-.044-.127-.143-.186-.272-.267-.287a3.834,3.834,0,0,0-.637-.038c-.171,0-.342.009-.513.006-.74-.014-1.48-.034-2.22-.045a.937.937,0,0,0-.7.3,2.292,2.292,0,0,0-.515,2.075.325.325,0,0,0,.058.123c.173.267.349.532.518.79a.418.418,0,0,0,.078.018c.708-.007,1.416-.031,2.123-.019a11.505,11.505,0,0,1,2.16,0ZM85.476,239.7c-.135-.009-.248-.023-.361-.023q-1.49,0-2.98,0c-.251,0-.5.013-.753,0a.485.485,0,0,1-.521-.407,2.379,2.379,0,0,1,.34-1.867.422.422,0,0,1,.372-.2c.627-.015,1.254-.04,1.882-.056.6-.017,1.207-.028,1.81-.043.108,0,.231.018.28-.163-.389-.021-.763-.062-1.138-.058-.936.009-1.872.039-2.808.056a.446.446,0,0,0-.294.129,3.337,3.337,0,0,0-.734,1.018,1.188,1.188,0,0,0-.137.421,6,6,0,0,0,.1,1.572c.139.006.251.017.364.017q1.884-.008,3.768-.017a1.63,1.63,0,0,1,.373.025C85.374,240.183,85.475,240.1,85.476,239.7ZM57.86,241.475c.121.342.223.653.341.957a.816.816,0,0,0,.468.474,2.506,2.506,0,0,0,2.208-.234,3.863,3.863,0,0,0-.83-.986,2.4,2.4,0,0,0-1.1-.514A1.526,1.526,0,0,0,57.86,241.475ZM57,234.344l.038-.08-.417-.279a2.239,2.239,0,0,1-1.077-2.051q.039-1.078.042-2.158c.006-1.542,0-3.085,0-4.627,0-.457,0-.914.007-1.371,0-.149,0-.294-.236-.356-.006.18-.017.334-.015.488.006.434.025.868.027,1.3q.015,3.548.024,7.1a2.659,2.659,0,0,0,.527,1.664A1.077,1.077,0,0,0,57,234.344Zm29.242-.3-.011-.062c-.2-.01-.406-.03-.608-.03q-1.626,0-3.252.01a.92.92,0,0,0-.8.6,1.528,1.528,0,0,0-.048,1.138.285.285,0,0,0,.314.244c.365-.006.73.017,1.1.02,1.038.008,2.076.011,3.113.017.144,0,.27-.018.319-.2a1.246,1.246,0,0,0-.174-.029c-.924-.014-1.849-.032-2.773-.034a7.9,7.9,0,0,0-.921.069.574.574,0,0,1-.706-.511.857.857,0,0,1,.307-.854,1.146,1.146,0,0,1,1.04-.3.825.825,0,0,0,.205.012q1.369-.023,2.738-.049A.857.857,0,0,0,86.241,234.049ZM69.375,245.724c.421-.155.831-.312,1.245-.457.66-.231,1.317-.47,1.963-.741.482-.2.987-.348,1.482-.518.342-.117.69-.221,1.028-.349.81-.309,1.616-.629,2.424-.944a3.389,3.389,0,0,0,.35-.136c.05-.026.073-.1.109-.153a1.344,1.344,0,0,0-.621.11,5.83,5.83,0,0,1-1.4.522c-.264.064-.53.124-.786.213s-.5.222-.758.32c-.649.248-1.3.493-1.952.729-.419.151-.848.273-1.265.428a8.887,8.887,0,0,1-1.457.493.752.752,0,0,0-.249.107A.275.275,0,0,0,69.375,245.724ZM76.3,218.218a4.21,4.21,0,0,0-.426,0c-.7.086-1.4.159-2.1.273-1.158.189-2.313.407-3.468.612l-1.647.293a.627.627,0,0,0-.163.046c-.157.076-.178.2-.053.324a.481.481,0,0,0,.485.165l-.118-.421c.095-.019.179-.042.265-.052.4-.049.809-.079,1.209-.146a3.677,3.677,0,0,1,1.047-.129.288.288,0,0,0,.166-.03,3.166,3.166,0,0,1,1.229-.249c.769-.1,1.54-.182,2.31-.269.256-.028.512-.05.764-.075l.079.411.095.009ZM57.685,241.353l.032-.086c-.213-.1-.422-.2-.639-.284-.351-.135-.712-.245-1.061-.383-1.315-.517-2.624-1.05-3.942-1.561-.69-.267-1.4-.493-2.09-.749-.385-.142-.762-.306-1.143-.459-.1-.04-.2-.112-.325.035a1.192,1.192,0,0,0,.2.121c.15.054.307.087.456.145,1.02.394,2.037.8,3.058,1.188,1.5.576,3.005,1.146,4.507,1.721.169.065.335.14.5.216A.642.642,0,0,0,57.685,241.353Zm4.08,1.56-.036.078a2.435,2.435,0,0,0,.294.155c.813.3,1.629.594,2.442.9.5.184.995.373,1.488.569.369.147.727.327,1.1.461.525.189,1.064.336,1.571.576.131.062.267.113.4.169.1-.242.1-.244-.153-.335q-3.3-1.2-6.594-2.4C62.108,243.016,61.935,242.967,61.764,242.913Zm7.981-22.772c-.065-.278.121-.259.285-.278.631-.072,1.264-.135,1.893-.225.582-.083,1.159-.2,1.74-.292.417-.065.837-.106,1.255-.166.266-.038.53-.093.851-.149a.5.5,0,0,0-.467-.193c-.2.036-.406.063-.608.1q-2.1.333-4.191.667c-.434.07-.867.146-1.326.223C69.286,220.1,69.51,220.074,69.745,220.141Zm11.818,16.071c-.13.378-.065.466.282.447q.762-.043,1.525-.066c.66-.02,1.321-.03,1.981-.048.118,0,.237-.023.366-.035a.352.352,0,0,0-.386-.257c-.468,0-.935-.014-1.4-.021s-.909-.014-1.364-.019C82.238,236.209,81.91,236.211,81.563,236.211Zm.042,1.245.011.074a15.2,15.2,0,0,0,1.641-.013,7.124,7.124,0,0,0,1.686-.111,20.342,20.342,0,0,0-3.026-.017C81.812,237.4,81.709,237.433,81.606,237.456Zm-20.242,5.317a.818.818,0,0,0-.608.169,1.518,1.518,0,0,1-.764.252,3.911,3.911,0,0,0-.638.121A2.5,2.5,0,0,0,61.364,242.773Zm-3.858-1.287-.078.048.176.388a2.066,2.066,0,0,1,.176.4,1.644,1.644,0,0,0,.539.8c.027-.053.049-.082.044-.089-.321-.389-.386-.908-.67-1.315C57.636,241.638,57.569,241.564,57.506,241.487Zm-1.559-1.245-.031.071c.1.046.2.1.3.137.57.232,1.141.463,1.714.688.045.017.11-.019.166-.03A13.67,13.67,0,0,0,55.947,240.242Zm2.721-5.146c.06-.583.06-.583-.03-.754l-.415.817ZM54.4,239.746a2.881,2.881,0,0,0-1.515-.569c.488.19.91.355,1.332.518A1.878,1.878,0,0,0,54.4,239.746Zm26.675-1.029a.892.892,0,0,0,.173.78c.077.057.164.067.215-.02a3.363,3.363,0,0,1-.233-.341A3.673,3.673,0,0,1,81.077,238.717Zm-26.217,1.2.764.331.04-.059c-.035-.047-.064-.129-.107-.136C55.326,240,55.13,239.821,54.859,239.912Zm-2.21-.822.041-.1a6.979,6.979,0,0,0-.9-.321l-.028.077Zm-3.694-1.506c.3.194.3.194.4-.038Zm32.3.379-.091-.025-.056.3.09.017Z" transform="translate(-47.206 -217.392)"></path><rect class="a" width="6.417" height="0.269" transform="matrix(0.262, -0.965, 0.965, 0.262, 29.606, 8.156)"></rect></g><g transform="translate(2.679 17.248)"><path class="a" d="M20.249,262.126l.1.974-3.783.4.132,1.247-.811.086-.366-3.469.811-.085.132,1.248Z" transform="translate(-15.38 -216.289)"></path><path class="a" d="M19.8,248.491l.008.976-1.993.018.016,1.829,1.994-.018.009.979-4.619.042-.009-.98,1.81-.016L17,249.493l-1.81.016-.009-.976Z" transform="translate(-15.185 -208.931)"></path><path class="a" d="M20.207,237.725,20,240.378l-4.6-.361.208-2.652.8.063L16.27,239.1l1.011.079.122-1.559.8.062-.122,1.559,1.187.094.132-1.676Z" transform="translate(-15.305 -202.529)"></path><path class="a" d="M21.945,226.815l-4.529-.91.193-.961,4.528.91Z" transform="translate(-16.469 -195.384)"></path><path class="a" d="M24.55,212.093l-.364,1.191-3.929.9-.008.027q.9.213,1.28.329l2.079.636-.256.837-4.417-1.352.361-1.181,3.9-.906.007-.021q-.875-.218-1.232-.327l-2.09-.639.258-.843Z" transform="translate(-17.342 -187.212)"></path><path class="a" d="M28.295,201.48a1.191,1.191,0,0,1,.713.815,1.953,1.953,0,0,1-.186,1.29,2.939,2.939,0,0,1-.792,1.079l-.829-.374a5.425,5.425,0,0,0,.593-.6,2.318,2.318,0,0,0,.321-.5.841.841,0,0,0,.091-.5.423.423,0,0,0-.263-.308.409.409,0,0,0-.251-.03.847.847,0,0,0-.277.119,5.81,5.81,0,0,0-.531.417,2.8,2.8,0,0,1-.61.421,1.426,1.426,0,0,1-.528.133,1.227,1.227,0,0,1-.57-.118,1.2,1.2,0,0,1-.708-.776,1.727,1.727,0,0,1,.153-1.191,2.719,2.719,0,0,1,.36-.591,4.83,4.83,0,0,1,.5-.524l.564.6a4.6,4.6,0,0,0-.444.47,1.976,1.976,0,0,0-.251.409.629.629,0,0,0-.057.442.427.427,0,0,0,.247.274.42.42,0,0,0,.231.039.658.658,0,0,0,.248-.1,5.911,5.911,0,0,0,.551-.433,2.469,2.469,0,0,1,.931-.554A1.211,1.211,0,0,1,28.295,201.48Z" transform="translate(-20.498 -181.166)"></path><path class="a" d="M30.471,188.34,33,189.926a1.722,1.722,0,0,1,.639.67,1.494,1.494,0,0,1,.15.874,2.368,2.368,0,0,1-.369.977,1.961,1.961,0,0,1-1.121.931,1.619,1.619,0,0,1-1.321-.245l-2.523-1.578.518-.828,2.4,1.5a1.182,1.182,0,0,0,.779.234.892.892,0,0,0,.588-.47.876.876,0,0,0,.157-.724,1.193,1.193,0,0,0-.554-.6l-2.392-1.5Z" transform="translate(-22.823 -174.322)"></path><path class="a" d="M39.328,182.551l1.332,1.169-.646.736-3.472-3.046.887-1.012a2.3,2.3,0,0,1,1.177-.822,1.367,1.367,0,0,1,1.478.994,1.487,1.487,0,0,1-.045.806q1.859.243,2.409.305l-.717.817-2.059-.341Zm-.6-.525.208-.237a1.212,1.212,0,0,0,.336-.617.554.554,0,0,0-.22-.487.505.505,0,0,0-.5-.138,1.372,1.372,0,0,0-.566.434l-.2.224Z" transform="translate(-27.473 -169.267)"></path><path class="a" d="M51.618,174.336l-.954-.642-1.307,1.062.434,1.065-.819.666-1.66-4.628.929-.755,4.2,2.567ZM49.965,173.2q-1.3-.866-1.472-.981c-.113-.076-.2-.139-.26-.188q.175.38.8,1.929Z" transform="translate(-33.67 -164.405)"></path><path class="a" d="M62.12,165.793l-1.1.582-3.41-2.149-.025.014q.486.79.671,1.139l1.016,1.921-.774.409-2.16-4.083,1.092-.578,3.391,2.12.019-.01q-.463-.774-.637-1.1l-1.022-1.933.779-.412Z" transform="translate(-38.863 -159)"></path><path class="a" d="M72.882,158.72a1,1,0,0,0-.7.647,1.933,1.933,0,0,0,.046,1.2q.449,1.478,1.558,1.141a3.671,3.671,0,0,0,1.057-.575l.239.786a3.278,3.278,0,0,1-1.146.6,1.938,1.938,0,0,1-1.653-.137,2.59,2.59,0,0,1-1.021-1.525,2.859,2.859,0,0,1-.116-1.283,1.9,1.9,0,0,1,.479-1.014,2.236,2.236,0,0,1,1.018-.611,3.107,3.107,0,0,1,1.388-.082l-.07.854a5.114,5.114,0,0,0-.561-.054A1.556,1.556,0,0,0,72.882,158.72Z" transform="translate(-47.368 -156.76)"></path><path class="a" d="M85.72,160.137l-2.634.369-.639-4.575,2.634-.369.111.795-1.665.233.141,1,1.549-.217.111.794-1.549.217.165,1.18,1.665-.233Z" transform="translate(-53.885 -155.463)"></path><path class="a" d="M98.831,159.925l.456-4.6.975.1-.376,3.792,1.865.185-.08.8Z" transform="translate(-63.312 -155.328)"></path><path class="a" d="M108.5,161.417l1.082-4.49.952.23-1.082,4.49Z" transform="translate(-68.877 -156.248)"></path><path class="a" d="M116.22,158.97l1.331.543a2.777,2.777,0,0,1,1.215.8.974.974,0,0,1,.075.992,1.122,1.122,0,0,1-.436.556.778.778,0,0,1-.6.1l-.011.029a1.02,1.02,0,0,1,.448.578,1.191,1.191,0,0,1-.09.735,1.174,1.174,0,0,1-.795.74,1.969,1.969,0,0,1-1.282-.141l-1.6-.653Zm-.078,2.783-.454,1.115.591.241a.945.945,0,0,0,.611.082.572.572,0,0,0,.358-.366q.217-.532-.543-.843Zm.294-.72.527.215a1.042,1.042,0,0,0,.58.1.46.46,0,0,0,.319-.31.407.407,0,0,0-.036-.425,1.242,1.242,0,0,0-.525-.339l-.477-.194Z" transform="translate(-72.314 -157.424)"></path><path class="a" d="M126.574,167.436l-.962,1.489-.823-.532,2.507-3.879,1.13.731a2.3,2.3,0,0,1,.984,1.044,1.367,1.367,0,0,1-.767,1.607,1.49,1.49,0,0,1-.8.073q.031,1.875.048,2.428l-.913-.589.036-2.087Zm.432-.668.265.171a1.2,1.2,0,0,0,.66.242.552.552,0,0,0,.45-.288.507.507,0,0,0,.064-.516,1.37,1.37,0,0,0-.513-.5l-.249-.161Z" transform="translate(-78.248 -160.613)"></path><path class="a" d="M135.438,178.256l.5-1.034-1.232-1.147-.994.577-.772-.719,4.354-2.283.876.816-1.963,4.51Zm.893-1.793q.678-1.411.769-1.594c.06-.122.11-.217.149-.284q-.352.225-1.8,1.056Z" transform="translate(-82.939 -165.87)"></path><path class="a" d="M144.22,183.988l-1.4,1.086-.6-.774,3.651-2.831.825,1.064a2.3,2.3,0,0,1,.583,1.311,1.366,1.366,0,0,1-1.256,1.262,1.485,1.485,0,0,1-.782-.2q-.592,1.778-.758,2.307l-.666-.859.725-1.957Zm.629-.487.194.249a1.206,1.206,0,0,0,.542.447.552.552,0,0,0,.52-.124.506.506,0,0,0,.231-.465,1.375,1.375,0,0,0-.319-.638l-.183-.235Z" transform="translate(-88.277 -170.369)"></path><path class="a" d="M152.552,193.281l2.13-.107.524.916-3.21.069-1.561.892-.483-.845,1.533-.876,1.717-2.746.527.922Z" transform="translate(-92.726 -175.614)"></path><path class="a" d="M156.692,213.429l.932-.673-.546-1.593-1.148.039-.342-1,4.916.04.388,1.133-3.858,3.051Zm1.634-1.161q1.263-.923,1.43-1.042c.111-.079.2-.139.266-.18q-.416.032-2.085.083Z" transform="translate(-95.969 -186.902)"></path><path class="a" d="M161.519,223.724a1.194,1.194,0,0,1-1.06-.224,1.957,1.957,0,0,1-.625-1.144,2.937,2.937,0,0,1-.014-1.337l.887-.2a5.467,5.467,0,0,0-.114.837,2.351,2.351,0,0,0,.046.6.845.845,0,0,0,.228.456.421.421,0,0,0,.4.087.4.4,0,0,0,.22-.127.854.854,0,0,0,.15-.262,5.746,5.746,0,0,0,.175-.653,2.833,2.833,0,0,1,.234-.7,1.444,1.444,0,0,1,.343-.423,1.213,1.213,0,0,1,.527-.248,1.193,1.193,0,0,1,1.031.195,1.725,1.725,0,0,1,.593,1.045,2.707,2.707,0,0,1,.067.689,4.731,4.731,0,0,1-.084.72l-.813-.142a4.606,4.606,0,0,0,.073-.643,1.972,1.972,0,0,0-.045-.477.631.631,0,0,0-.22-.388.429.429,0,0,0-.362-.071.422.422,0,0,0-.208.108.672.672,0,0,0-.14.228,6.029,6.029,0,0,0-.18.676,2.474,2.474,0,0,1-.412,1A1.216,1.216,0,0,1,161.519,223.724Z" transform="translate(-98.363 -192.735)"></path><path class="a" d="M163.167,233.806a1.193,1.193,0,0,1-1.035-.321,1.955,1.955,0,0,1-.517-1.2,2.936,2.936,0,0,1,.108-1.332l.9-.116a5.447,5.447,0,0,0-.19.823,2.375,2.375,0,0,0-.009.6.846.846,0,0,0,.186.475.423.423,0,0,0,.386.124.408.408,0,0,0,.23-.106.855.855,0,0,0,.173-.247,5.76,5.76,0,0,0,.234-.634,2.808,2.808,0,0,1,.3-.679,1.428,1.428,0,0,1,.38-.39,1.214,1.214,0,0,1,.548-.2,1.194,1.194,0,0,1,1.009.289,1.729,1.729,0,0,1,.495,1.094,2.723,2.723,0,0,1,0,.693,4.791,4.791,0,0,1-.151.709l-.8-.216a4.689,4.689,0,0,0,.132-.634,1.969,1.969,0,0,0,0-.48.627.627,0,0,0-.183-.406.428.428,0,0,0-.355-.1.416.416,0,0,0-.217.089.659.659,0,0,0-.16.214,5.793,5.793,0,0,0-.242.656,2.47,2.47,0,0,1-.5.96A1.211,1.211,0,0,1,163.167,233.806Z" transform="translate(-99.419 -198.633)"></path><path class="a" d="M165.037,245.5a2.505,2.505,0,0,1-1.78-.511,2.464,2.464,0,0,1-.107-3.259,2.517,2.517,0,0,1,1.749-.626,2.484,2.484,0,0,1,1.779.512,2.134,2.134,0,0,1,.661,1.614,2.1,2.1,0,0,1-.559,1.648A2.514,2.514,0,0,1,165.037,245.5Zm-.11-3.37a1.93,1.93,0,0,0-1.156.333,1.027,1.027,0,0,0-.363.89q.038,1.171,1.6,1.121t1.521-1.216a1.035,1.035,0,0,0-.422-.868A1.924,1.924,0,0,0,164.927,242.132Z" transform="translate(-99.995 -204.681)"></path><path class="a" d="M166.142,257.337a1,1,0,0,0-.351-.884,1.929,1.929,0,0,0-1.133-.387q-1.541-.113-1.626,1.042a3.658,3.658,0,0,0,.156,1.194l-.819-.061a3.274,3.274,0,0,1-.143-1.284,1.937,1.937,0,0,1,.723-1.493,2.59,2.59,0,0,1,1.789-.4,2.87,2.87,0,0,1,1.24.354,1.9,1.9,0,0,1,.773.812,2.233,2.233,0,0,1,.2,1.17,3.107,3.107,0,0,1-.424,1.324l-.771-.374a5.209,5.209,0,0,0,.253-.5A1.542,1.542,0,0,0,166.142,257.337Z" transform="translate(-99.782 -212.704)"></path><path class="a" d="M161.464,266.148l4.567.689-.146.969-4.567-.689Z" transform="translate(-99.266 -219.091)"></path><path class="a" d="M158.791,274.413l1.147-.071.39-1.638-.992-.581.244-1.026,4.135,2.659-.277,1.165-4.891.518Zm2-.108q1.561-.106,1.766-.118c.136-.008.243-.011.321-.01q-.369-.195-1.807-1.043Z" transform="translate(-97.671 -221.938)"></path><path class="a" d="M156.286,286.5l.329-.922,3.583,1.277.421-1.181.768.273-1.172,3.286-.768-.274.421-1.181Z" transform="translate(-96.37 -230.272)"></path><path class="a" d="M153.5,293.243l4.2,1.931-.409.89-4.2-1.931Z" transform="translate(-94.532 -234.68)"></path><path class="a" d="M149.219,304.479a2.505,2.505,0,0,1-1.211-1.4,2.464,2.464,0,0,1,1.693-2.786,2.519,2.519,0,0,1,1.807.432,2.484,2.484,0,0,1,1.209,1.4,2.134,2.134,0,0,1-.329,1.713,2.1,2.1,0,0,1-1.37,1.073A2.514,2.514,0,0,1,149.219,304.479Zm1.75-2.881a1.927,1.927,0,0,0-1.149-.355,1.027,1.027,0,0,0-.791.547q-.608,1,.723,1.811t1.939-.186a1.036,1.036,0,0,0,.122-.958A1.925,1.925,0,0,0,150.97,301.6Z" transform="translate(-91.568 -238.715)"></path><path class="a" d="M137.952,313.137l.821-.936,3.952.793.019-.022q-.735-.565-1.033-.825l-1.634-1.433.577-.657,3.473,3.045-.814.929-3.924-.772-.014.016q.708.559.989.8l1.644,1.442-.581.662Z" transform="translate(-85.822 -244.354)"></path></g><g transform="translate(10.642 81.766)"><path class="a" d="M36.981,307.267l.733.947a2.3,2.3,0,0,1,.544,1.082.813.813,0,0,1-.359.746.934.934,0,0,1-.546.219.647.647,0,0,1-.474-.177l-.02.016a.853.853,0,0,1,.082.6.993.993,0,0,1-.371.493.982.982,0,0,1-.882.2,1.645,1.645,0,0,1-.866-.637l-.882-1.138Zm-1.217,1.975-.793.614.326.42a.793.793,0,0,0,.407.315.476.476,0,0,0,.411-.115q.379-.294-.041-.835Zm.512-.4.29.374a.873.873,0,0,0,.375.317.384.384,0,0,0,.36-.091.34.34,0,0,0,.152-.322,1.039,1.039,0,0,0-.238-.464l-.262-.339Z" transform="translate(-33.938 -307.267)"></path><path class="a" d="M44.255,318.554a2.091,2.091,0,0,1-1.4.651,2.055,2.055,0,0,1-1.847-1.993,2.1,2.1,0,0,1,.759-1.35,2.07,2.07,0,0,1,1.4-.649,1.779,1.779,0,0,1,1.3.655,1.752,1.752,0,0,1,.548,1.343A2.1,2.1,0,0,1,44.255,318.554Zm-1.91-2.061a1.6,1.6,0,0,0-.546.84.857.857,0,0,0,.258.759q.664.716,1.616-.166t.294-1.6a.862.862,0,0,0-.74-.316A1.6,1.6,0,0,0,42.345,316.493Z" transform="translate(-38.003 -311.839)"></path><path class="a" d="M49.629,325.249a1,1,0,0,1-.829.358,1.633,1.633,0,0,1-.976-.477,2.447,2.447,0,0,1-.653-.9l.508-.563a4.444,4.444,0,0,0,.326.624,1.938,1.938,0,0,0,.318.383.706.706,0,0,0,.375.2.352.352,0,0,0,.311-.131.335.335,0,0,0,.088-.191.7.7,0,0,0-.024-.251,4.813,4.813,0,0,0-.2-.527,2.352,2.352,0,0,1-.179-.592,1.19,1.19,0,0,1,.029-.452,1,1,0,0,1,.24-.422.994.994,0,0,1,.794-.364,1.44,1.44,0,0,1,.906.425,2.271,2.271,0,0,1,.377.437,3.951,3.951,0,0,1,.289.531l-.62.294a3.8,3.8,0,0,0-.26-.473,1.6,1.6,0,0,0-.26-.3.526.526,0,0,0-.336-.158.358.358,0,0,0-.281.126.349.349,0,0,0-.089.173.537.537,0,0,0,.014.222,4.857,4.857,0,0,0,.2.547,2.057,2.057,0,0,1,.2.88A1.012,1.012,0,0,1,49.629,325.249Z" transform="translate(-41.552 -315.71)"></path><path class="a" d="M55.071,329.588l-.65-.494,1.916-2.525-.833-.632.411-.541,2.316,1.757-.411.541-.833-.632Z" transform="translate(-45.723 -317.698)"></path><path class="a" d="M64.486,334.355a2.091,2.091,0,0,1-1.149,1.031,2.054,2.054,0,0,1-2.347-1.369,2.1,2.1,0,0,1,.332-1.512,2.071,2.071,0,0,1,1.15-1.028,1.774,1.774,0,0,1,1.432.248,1.752,1.752,0,0,1,.915,1.124A2.093,2.093,0,0,1,64.486,334.355ZM62.06,332.94a1.613,1.613,0,0,0-.278.963.858.858,0,0,0,.468.651q.844.492,1.5-.63t-.185-1.613a.863.863,0,0,0-.8-.087A1.6,1.6,0,0,0,62.06,332.94Z" transform="translate(-49.482 -321.161)"></path><path class="a" d="M73.045,339.925l-.972-.361-.555-3.313-.023-.008q-.222.74-.337,1.049l-.631,1.7-.684-.254,1.341-3.608.965.359.563,3.285.017.007q.225-.718.333-1.008l.635-1.708.689.256Z" transform="translate(-54.597 -323.297)"></path></g><g transform="translate(17.35 69.065)"><path class="a" d="M49.735,279.466l2.242-2.111.345.366-2.241,2.111Z" transform="translate(-49.735 -277.355)"></path><path class="a" d="M54.042,283.921l-.386-.313.9-1.114a.624.624,0,0,0,.169-.381.42.42,0,0,0-.184-.32.548.548,0,0,0-.473-.145,1.027,1.027,0,0,0-.5.391l-.73.9-.385-.311,1.465-1.811.3.244-.138.282.02.016a.688.688,0,0,1,.394-.012,1.008,1.008,0,0,1,.391.2A.747.747,0,0,1,55,282.74Z" transform="translate(-51.297 -279.349)"></path><path class="a" d="M59.344,287.719a1.02,1.02,0,0,1-.521-.685,1.566,1.566,0,0,1,.952-1.515,1.067,1.067,0,0,1,.873.169,1.554,1.554,0,0,1,.492.465l-.336.259a1.5,1.5,0,0,0-.377-.376q-.513-.318-.936.365a.96.96,0,0,0-.181.58.522.522,0,0,0,.272.4,1.272,1.272,0,0,0,.619.19l-.227.367a.962.962,0,0,1-.3-.054A1.688,1.688,0,0,1,59.344,287.719Z" transform="translate(-54.956 -282.033)"></path><path class="a" d="M65.874,289.747a1.271,1.271,0,0,1-.645.681,1.046,1.046,0,0,1-.873-.058,1.117,1.117,0,0,1-.459-.38.972.972,0,0,1-.168-.547,1.439,1.439,0,0,1,.151-.637,1.26,1.26,0,0,1,.64-.676,1.057,1.057,0,0,1,.877.061,1.028,1.028,0,0,1,.585.636A1.256,1.256,0,0,1,65.874,289.747Zm-1.534-.724q-.344.73.2.984t.877-.478q.341-.722-.2-.976a.506.506,0,0,0-.5-.006A1.054,1.054,0,0,0,64.341,289.024Z" transform="translate(-57.787 -283.515)"></path><path class="a" d="M71.444,290.426a1.173,1.173,0,0,1,.225.1l-.2.419a.946.946,0,0,0-.2-.1.634.634,0,0,0-.518.022.7.7,0,0,0-.342.414l-.405,1.148-.467-.165.776-2.2.366.129-.076.409.024.008a.914.914,0,0,1,.4-.211A.716.716,0,0,1,71.444,290.426Z" transform="translate(-61.13 -284.672)"></path><path class="a" d="M75.16,294.136a.816.816,0,0,1-.591-.474l-.028-.007q-.043.293-.058.355l-.229.926-.481-.119.809-3.267.389.1q0,.068-.007.319l.025.006a.776.776,0,0,1,.76-.176.805.805,0,0,1,.583.47,1.73,1.73,0,0,1-.431,1.724A.817.817,0,0,1,75.16,294.136Zm.366-1.98a.512.512,0,0,0-.459.064.892.892,0,0,0-.265.5l-.017.072a1.087,1.087,0,0,0-.017.631.5.5,0,0,0,.381.29.448.448,0,0,0,.435-.109,1.088,1.088,0,0,0,.279-.549,1.051,1.051,0,0,0,.009-.609A.46.46,0,0,0,75.527,292.157Z" transform="translate(-63.566 -285.522)"></path><path class="a" d="M83.443,294.546a1.272,1.272,0,0,1-.413.842,1.049,1.049,0,0,1-.852.2,1.121,1.121,0,0,1-.551-.226.975.975,0,0,1-.323-.473,1.441,1.441,0,0,1-.045-.653,1.265,1.265,0,0,1,.41-.837,1.053,1.053,0,0,1,.855-.2,1.024,1.024,0,0,1,.748.433A1.256,1.256,0,0,1,83.443,294.546Zm-1.679-.234q-.111.8.479.881t.7-.717q.11-.791-.478-.873a.507.507,0,0,0-.476.142A1.052,1.052,0,0,0,81.764,294.312Z" transform="translate(-67.863 -286.465)"></path><path class="a" d="M89.32,293.8a1.232,1.232,0,0,1,.245.035l-.074.458a.917.917,0,0,0-.217-.038.631.631,0,0,0-.491.166.7.7,0,0,0-.213.491l-.069,1.216-.494-.028.132-2.327.387.022.042.414h.025a.919.919,0,0,1,.321-.313A.729.729,0,0,1,89.32,293.8Z" transform="translate(-71.754 -286.8)"></path><path class="a" d="M94.245,296.207l-.108-.321h-.017a.96.96,0,0,1-.33.3,1.071,1.071,0,0,1-.436.09.743.743,0,0,1-.541-.17.693.693,0,0,1-.208-.518.616.616,0,0,1,.252-.551,1.541,1.541,0,0,1,.809-.223l.4-.024,0-.124a.471.471,0,0,0-.113-.331.427.427,0,0,0-.327-.1,1.132,1.132,0,0,0-.342.063,2.487,2.487,0,0,0-.312.133l-.17-.349a1.747,1.747,0,0,1,.411-.162,1.884,1.884,0,0,1,.424-.064,1.006,1.006,0,0,1,.676.175.759.759,0,0,1,.243.6L94.6,296.2Zm-.746-.316a.609.609,0,0,0,.428-.163.544.544,0,0,0,.151-.426l-.006-.2-.3.022a1.028,1.028,0,0,0-.505.131.357.357,0,0,0-.149.324.31.31,0,0,0,.1.239A.4.4,0,0,0,93.5,295.891Z" transform="translate(-74.401 -286.846)"></path><path class="a" d="M99.659,294.916a1.181,1.181,0,0,0,.356-.088l.032.372a1.027,1.027,0,0,1-.206.079,1.519,1.519,0,0,1-.265.047q-.7.061-.765-.678L98.7,293.4l-.317.028-.019-.219.324-.21.125-.506.3-.026.045.516.661-.057.032.374-.661.057L99.3,294.6a.35.35,0,0,0,.112.256A.324.324,0,0,0,99.659,294.916Z" transform="translate(-77.716 -286.048)"></path><path class="a" d="M104.541,295.3a1.125,1.125,0,0,1-.889-.18,1.2,1.2,0,0,1-.439-.814,1.321,1.321,0,0,1,.141-.931.982.982,0,0,1,.721-.445.958.958,0,0,1,.763.163,1.07,1.07,0,0,1,.385.72l.042.264-1.533.243a.763.763,0,0,0,.262.486.638.638,0,0,0,.509.1,1.82,1.82,0,0,0,.374-.1,1.984,1.984,0,0,0,.357-.188l.063.4a1.516,1.516,0,0,1-.343.178A2.244,2.244,0,0,1,104.541,295.3Zm-.409-2a.5.5,0,0,0-.35.207.718.718,0,0,0-.1.458l1.044-.166a.644.644,0,0,0-.205-.41A.479.479,0,0,0,104.132,293.3Z" transform="translate(-80.49 -286.308)"></path><path class="a" d="M110.535,292.6a.814.814,0,0,1-.736-.142,1.732,1.732,0,0,1-.427-1.727.818.818,0,0,1,.588-.475.8.8,0,0,1,.761.16l.025-.006a3.065,3.065,0,0,1-.131-.375l-.205-.824.482-.12.792,3.18-.376.094-.158-.276-.023.006A.79.79,0,0,1,110.535,292.6Zm.032-.421a.537.537,0,0,0,.389-.274.9.9,0,0,0,0-.575l-.017-.068a1.044,1.044,0,0,0-.29-.572.532.532,0,0,0-.48-.071.454.454,0,0,0-.339.3,1.082,1.082,0,0,0,.009.62,1.053,1.053,0,0,0,.275.54A.463.463,0,0,0,110.567,292.177Z" transform="translate(-83.998 -284.106)"></path><path class="a" d="M120.08,289.947l-.462.178-.717-1.854q-.128-.332-.188-.533c-.018.043-.042.092-.07.147s-.13.232-.3.532l-.345-.2.588-.991.385-.149Z" transform="translate(-89.01 -282.948)"></path><path class="a" d="M123.846,284.836a1.093,1.093,0,0,1,.711-.121.652.652,0,0,1,.464.374.848.848,0,0,1-.184.927,1.462,1.462,0,0,1,.629.119.72.72,0,0,1,.332.335.75.75,0,0,1,.014.672,1.158,1.158,0,0,1-.583.536,1.239,1.239,0,0,1-.793.146.73.73,0,0,1-.513-.428.783.783,0,0,1-.071-.479,1.21,1.21,0,0,1,.267-.535,1.188,1.188,0,0,1-.517-.146.759.759,0,0,1-.292-.327.638.638,0,0,1,0-.6A1.108,1.108,0,0,1,123.846,284.836Zm.162.346a.518.518,0,0,0-.26.241.343.343,0,0,0,.008.311.408.408,0,0,0,.127.156.513.513,0,0,0,.19.083,1.6,1.6,0,0,0,.343.022,1,1,0,0,0,.219-.366.433.433,0,0,0-.031-.3.347.347,0,0,0-.24-.2A.53.53,0,0,0,124.008,285.182Zm.334,1.993a.409.409,0,0,0,.287.24.659.659,0,0,0,.428-.073.642.642,0,0,0,.326-.3.42.42,0,0,0-.012-.372.437.437,0,0,0-.261-.22,1.318,1.318,0,0,0-.493-.052l-.067,0a1.081,1.081,0,0,0-.243.416A.508.508,0,0,0,124.342,287.175Z" transform="translate(-92.026 -281.579)"></path><path class="a" d="M129.06,282.029a1.094,1.094,0,0,1,.7-.179.653.653,0,0,1,.493.334.846.846,0,0,1-.107.938,1.467,1.467,0,0,1,.637.067.715.715,0,0,1,.358.307.75.75,0,0,1,.069.668,1.161,1.161,0,0,1-.536.583,1.243,1.243,0,0,1-.779.21.726.726,0,0,1-.547-.384.786.786,0,0,1-.111-.472,1.209,1.209,0,0,1,.222-.555,1.189,1.189,0,0,1-.527-.1.762.762,0,0,1-.318-.3.634.634,0,0,1-.044-.594A1.106,1.106,0,0,1,129.06,282.029Zm.19.33a.524.524,0,0,0-.239.262.346.346,0,0,0,.034.309.4.4,0,0,0,.139.145.5.5,0,0,0,.2.067,1.583,1.583,0,0,0,.344-.006,1,1,0,0,0,.188-.384.432.432,0,0,0-.056-.3.345.345,0,0,0-.256-.178A.535.535,0,0,0,129.251,282.359Zm.5,1.959a.408.408,0,0,0,.305.215.655.655,0,0,0,.421-.108.638.638,0,0,0,.3-.323.417.417,0,0,0-.043-.369.434.434,0,0,0-.278-.2,1.3,1.3,0,0,0-.5-.011l-.067.007a1.086,1.086,0,0,0-.208.435A.508.508,0,0,0,129.748,284.318Z" transform="translate(-95.064 -279.937)"></path><path class="a" d="M134.783,281.263l-.549-2.854-1.3.933-.254-.355,1.731-1.24.2.28.606,2.924Z" transform="translate(-97.459 -277.581)"></path></g><path class="a" d="M82.407,331.272c-20.614-8.508-24.365-13.787-24.515-14.008l1.125-.77c.036.051,3.843,5.236,23.91,13.517Z" transform="translate(-37.079 -230.81)"></path><circle class="a" cx="1.014" cy="1.014" r="1.014" transform="translate(50.587 90.846)"></circle><path class="a" d="M133.317,219.818a6.651,6.651,0,0,1,.871-1.386,10.725,10.725,0,0,1,1.079-1.161,10.529,10.529,0,0,1,1.237-.992,6.575,6.575,0,0,1,1.447-.766,6.559,6.559,0,0,1-.87,1.387,10.532,10.532,0,0,1-1.08,1.161,10.7,10.7,0,0,1-1.238.991A6.637,6.637,0,0,1,133.317,219.818Z" transform="translate(-80.476 -172.708)"></path><path class="a" d="M121.106,203.346a9.541,9.541,0,0,1,.619-1.868,15.784,15.784,0,0,1,.882-1.711,15.486,15.486,0,0,1,1.081-1.592,9.422,9.422,0,0,1,1.347-1.435,9.441,9.441,0,0,1-.618,1.868,15.451,15.451,0,0,1-.883,1.71,15.789,15.789,0,0,1-1.082,1.591A9.543,9.543,0,0,1,121.106,203.346Z" transform="translate(-73.45 -161.907)"></path><path class="a" d="M106.12,195.378a15.059,15.059,0,0,1-.241-2.472c-.019-.82.005-1.636.065-2.45s.157-1.625.3-2.433a14.889,14.889,0,0,1,.6-2.41,14.936,14.936,0,0,1,.242,2.473q.027,1.229-.066,2.45c-.061.814-.158,1.625-.3,2.432A15.106,15.106,0,0,1,106.12,195.378Z" transform="translate(-64.686 -155.505)"></path><path class="a" d="M89.432,193.04a24.208,24.208,0,0,1-.78-3.128q-.3-1.575-.482-3.163c-.124-1.058-.2-2.122-.245-3.189a24.083,24.083,0,0,1,.055-3.224,24.077,24.077,0,0,1,.781,3.128c.2,1.05.362,2.1.481,3.163s.2,2.122.244,3.19A24.284,24.284,0,0,1,89.432,193.04Z" transform="translate(-54.342 -152.468)"></path><path class="a" d="M73.792,200.768a14.247,14.247,0,0,1-1.234-2.075c-.354-.714-.668-1.442-.949-2.183a23.713,23.713,0,0,1-.732-2.265,14.061,14.061,0,0,1-.442-2.374,14.117,14.117,0,0,1,1.236,2.075,23.719,23.719,0,0,1,.947,2.184c.279.741.524,1.5.73,2.265A14.288,14.288,0,0,1,73.792,200.768Z" transform="translate(-44.296 -159.105)"></path><path class="a" d="M59.819,211.621a8.136,8.136,0,0,1-1.436-1.107,13.243,13.243,0,0,1-1.2-1.3,13.1,13.1,0,0,1-1.018-1.444,8.065,8.065,0,0,1-.777-1.638,8.035,8.035,0,0,1,1.437,1.106,13.039,13.039,0,0,1,1.2,1.3,13.3,13.3,0,0,1,1.017,1.445A8.119,8.119,0,0,1,59.819,211.621Z" transform="translate(-35.64 -167.311)"></path><path class="a" d="M49.891,223.081a5.068,5.068,0,0,1-1.282-.613,7.864,7.864,0,0,1-1.074-.837,7.775,7.775,0,0,1-.917-1.007,5.01,5.01,0,0,1-.706-1.233,5.017,5.017,0,0,1,1.283.611,7.8,7.8,0,0,1,1.073.838,7.952,7.952,0,0,1,.916,1.008A5.072,5.072,0,0,1,49.891,223.081Z" transform="translate(-30.186 -174.94)"></path><path class="a" d="M76.142,322.789a.738.738,0,0,1-.37-.1l-12.4-7.215a.737.737,0,0,1-.366-.637c0-4.479,2.959-5.127,3.085-5.153a.756.756,0,0,1,.2-.012,60.312,60.312,0,0,1,6.589.952c1.977.362,4.021.736,6.14.916,2.565.217,4.928,4.4,5.189,4.875a.737.737,0,0,1-1.265.754c-1.392-2.152-3.224-4.011-3.847-3.886-1.02.2-2.157,3.607-2.214,8.778a.736.736,0,0,1-.737.728ZM64.488,314.42l10.957,6.374c.107-2.168.5-6.081,1.9-7.949-1.631-.2-3.2-.491-4.738-.772a60.118,60.118,0,0,0-6.3-.923C65.971,311.266,64.622,311.88,64.488,314.42Z" transform="translate(-40.02 -226.884)"></path><g transform="translate(27.14 85.387)"><path class="a" d="M76.23,318.306a1.984,1.984,0,0,1-.907,1.152,1.953,1.953,0,0,1-2.421-.9,1.994,1.994,0,0,1,.065-1.47,1.966,1.966,0,0,1,.907-1.151,1.691,1.691,0,0,1,1.381,0,1.666,1.666,0,0,1,1.04.9A1.991,1.991,0,0,1,76.23,318.306Zm-2.5-.927a1.527,1.527,0,0,0-.1.946.814.814,0,0,0,.544.533q.87.322,1.3-.834t-.437-1.479a.821.821,0,0,0-.763.05A1.522,1.522,0,0,0,73.727,317.379Z" transform="translate(-72.79 -315.793)"></path><path class="a" d="M82.063,322.1l-.715-.265,1.27-3.429,1.966.728-.221.6-1.25-.463-.327.885,1.163.431-.22.594-1.163-.431Z" transform="translate(-77.714 -317.297)"></path></g><path class="a" d="M77.943,373.567H69.851v-3.726H72.2l.118.229a1.549,1.549,0,0,0,2.93,0l.119-.229h2.579Zm-7.243-.849h6.394V370.69H75.869a2.348,2.348,0,0,1-4.178,0H70.7Z" transform="translate(-43.96 -261.504)"></path><path class="a" d="M75.23,365.773c-1.576,0-2.859-1.585-2.859-3.532s1.283-3.532,2.859-3.532,2.859,1.584,2.859,3.532S76.806,365.773,75.23,365.773Zm0-5.791c-.859,0-1.585,1.034-1.585,2.258s.726,2.259,1.585,2.259,1.585-1.034,1.585-2.259S76.089,359.982,75.23,359.982Z" transform="translate(-45.41 -255.098)"></path><path class="a" d="M25.646,293.034a1.219,1.219,0,0,1-1.175-.548c-.25-.514.08-1.209.86-1.814l.27.348c-.578.448-.88.971-.733,1.273.188.387,1.157.448,2.248-.082s1.641-1.33,1.453-1.716c-.149-.307-.759-.391-1.483-.2l-.11-.426c.959-.25,1.74-.078,1.99.436.33.68-.4,1.693-1.657,2.305A3.922,3.922,0,0,1,25.646,293.034Z" transform="translate(-17.802 -215.424)"></path><path class="a" d="M14.774,291.208c-2.223,0-4.05-.763-4.892-2.242a3.879,3.879,0,0,1-.254-3.124c.649-2.12,2.7-4.208,5.492-5.586,4.422-2.184,9.063-1.828,10.566.813a3.88,3.88,0,0,1,.254,3.124c-.649,2.119-2.7,4.208-5.492,5.586A13.06,13.06,0,0,1,14.774,291.208ZM20.817,280.2a11.821,11.821,0,0,0-5.093,1.277c-2.423,1.2-4.259,3.022-4.792,4.763a2.522,2.522,0,0,0,.135,2.05c1.107,1.947,5.127,2.068,8.777.265,2.423-1.2,4.259-3.022,4.792-4.763a2.524,2.524,0,0,0-.135-2.05C23.919,280.719,22.532,280.2,20.817,280.2Zm-5.469,8.869a3.12,3.12,0,0,1-2.873-1.291,2.232,2.232,0,0,1-.161-1.755,6.856,6.856,0,0,1,3.49-3.611l.646,1.2a5.718,5.718,0,0,0-2.826,2.787.9.9,0,0,0,.036.7c.464.814,2.738.86,5.089-.3a6,6,0,0,0,3.118-2.915.915.915,0,0,0-.027-.735c-.324-.57-1.715-.859-3.655-.267l-.4-1.3c2.448-.745,4.5-.393,5.237.9a2.247,2.247,0,0,1,.146,1.809,7.233,7.233,0,0,1-3.818,3.738A9.3,9.3,0,0,1,15.348,289.069Z" transform="translate(-9.189 -209.137)"></path><path class="a" d="M25.883,288.513a.708.708,0,0,1-.653-.437l-.865-2.089a1.228,1.228,0,0,1,.665-1.6,1.231,1.231,0,0,1,1.6.665l.865,2.089a.708.708,0,0,1-.383.924l-.963.4A.709.709,0,0,1,25.883,288.513Zm-.384-3.783a.787.787,0,0,0-.726,1.089l.865,2.089a.267.267,0,0,0,.348.144l.963-.4a.267.267,0,0,0,.144-.348l-.865-2.089A.789.789,0,0,0,25.5,284.731Z" transform="translate(-17.734 -212.281)"></path><g transform="translate(0 13.735)"><path class="a" d="M19.547,292.269a5.109,5.109,0,0,1-1.022-.1l-.338-.068-.145-.313c-.41-.883-.8-1.805-1.193-2.818l-.12-.308.167-.284a7.957,7.957,0,0,1,3.113-2.763l.646,1.2a7.143,7.143,0,0,0-2.408,1.984c.29.735.581,1.421.88,2.082a7.531,7.531,0,0,0,3.828-.873,7.191,7.191,0,0,0,2.836-2.324c-.29-.61-.569-1.24-.832-1.881a5.915,5.915,0,0,0-2.3.207l-.355-1.316a6.634,6.634,0,0,1,3.326-.143l.33.088.127.317c.336.84.7,1.665,1.085,2.451l.146.3-.146.3a7.837,7.837,0,0,1-3.612,3.224A9.378,9.378,0,0,1,19.547,292.269Z" transform="translate(-13.395 -226.082)"></path><path class="a" d="M45.284,235.3a30.543,30.543,0,0,1-8.524-1.215c-9.153-2.66-17.012-9.444-22.128-19.1l-.485-.916,1.033-.083a12.153,12.153,0,0,0,4.352-1.248,11.78,11.78,0,0,0,3.211-2.293l.627-.646.452.779A29.609,29.609,0,0,0,32.98,220.5l.316.209,0,.178,11.068,6.439c.034-.643.1-1.5.208-2.432l.072-.6H45.3c14.6,0,26.48-14.86,26.48-33.126s-11.885-33.125-26.493-33.125S18.791,172.9,18.791,191.17a40.229,40.229,0,0,0,1.9,12.335l.273.848-.89.041a12.5,12.5,0,0,0-7.555,3.245l-.783.735-.332-1.021a52.213,52.213,0,0,1-2.529-16.175c0-24.33,16.333-44.124,36.407-44.124s36.407,19.794,36.407,44.124S65.36,235.3,45.284,235.3ZM16.311,215.218c4.945,8.865,12.31,15.084,20.83,17.559a29.168,29.168,0,0,0,8.144,1.161c19.323,0,35.044-19.182,35.044-42.76s-15.721-42.76-35.044-42.76S10.24,167.6,10.24,191.179a50.986,50.986,0,0,0,2.154,14.773,14.118,14.118,0,0,1,6.747-2.844,41.733,41.733,0,0,1-1.714-11.938c0-19.017,12.5-34.489,27.857-34.489s27.857,15.472,27.857,34.489c0,18.781-12.187,34.1-27.284,34.482-.159,1.574-.175,2.83-.175,2.844l-.014,1.169-13.752-8v-.234A30.868,30.868,0,0,1,23.084,212a13.579,13.579,0,0,1-2.948,1.96A13.967,13.967,0,0,1,16.311,215.218Z" transform="translate(-8.877 -147.055)"></path></g></g></g></svg> 